<svg width="93" height="35" viewBox="0 0 93 35" fill="none" xmlns="http://www.w3.org/2000/svg">
<path d="M60.1107 25.0436V7.20133C60.1107 1.10354 66.3824 -0.187571 70.8754 1.55465V4.96133C67.7779 3.67021 64.297 3.99688 64.297 7.91689H69.296V11.3236H64.297V24.9969L60.1107 25.0436ZM80.0454 5.27244H83.143L83.7717 7.90133H87.6359V11.308H84.2164V19.2103C84.2164 20.8125 84.9064 21.5903 86.2405 21.5903H88.3873V24.9969H84.2164C81.4255 24.9969 79.9841 23.4569 79.9841 20.4391V5.288H80.0454V5.27244ZM72.5775 7.90133H76.8098V24.9814H72.5775V7.90133ZM72.5775 1.74132H76.8098V5.27244H72.5775V1.74132ZM92.0063 24.9814C88.28 30.9547 81.7475 34.8592 74.295 34.8592C66.8271 34.8592 60.31 30.9392 56.5837 24.9814C60.9541 29.0881 67.2718 31.5925 74.295 31.5925C81.3182 31.6547 87.6359 29.0881 92.0063 24.9814Z" fill="white"/>
<path d="M0.506036 21.0612V18.7434C1.70212 19.2567 3.15889 19.5212 4.73834 19.5212C5.93442 19.5212 6.51713 19.1323 6.51713 18.3701C6.51713 17.6701 6.13377 17.2812 5.32104 17.2812H3.35824C1.15008 17.2812 0 16.1301 0 13.8745C0 11.5567 1.64078 10.4056 4.87635 10.4056C6.27178 10.4056 7.5292 10.5923 8.80196 11.0434V13.3612C7.60587 12.8478 6.27178 12.5834 4.81501 12.5834C3.2969 12.5834 2.60685 12.9723 2.60685 13.7345C2.60685 14.4345 3.05155 14.8234 3.94095 14.8234H5.71974C8.12724 14.8234 9.38467 15.9745 9.38467 18.2301C9.38467 20.5479 7.80522 21.699 4.70767 21.699C3.09755 21.7145 1.77879 21.4501 0.506036 21.0612ZM11.1941 21.5745V10.4678H13.3409L13.663 11.8834C14.9357 10.9189 16.1932 10.4678 17.3892 10.4678C18.7847 10.4678 19.7354 10.9812 20.3028 12.0078C21.6982 10.9812 23.017 10.4678 24.2284 10.4678C26.5746 10.4678 27.7093 11.8834 27.7093 14.699V21.5745H24.9184V14.5745C24.9184 13.3612 24.4124 12.7078 23.4003 12.7078C22.5723 12.7078 21.6982 13.159 20.8088 14.1234V21.5745H18.0179V14.5745C18.0179 13.2834 17.5119 12.7078 16.4998 12.7078C15.6104 12.7078 14.721 13.159 13.9083 14.1234V21.5745C13.9237 21.5745 11.1941 21.5745 11.1941 21.5745ZM29.8101 18.1212C29.8101 15.8034 31.3896 14.7145 34.5485 14.7145C35.4992 14.7145 36.3886 14.7767 37.0786 14.9012V14.2012C37.0786 13.2367 36.1279 12.7234 34.2264 12.7234C33.0303 12.7234 31.8189 12.9101 30.6842 13.2367V10.9967C31.8803 10.6701 33.0917 10.4834 34.2264 10.4834C37.9527 10.4834 39.8542 11.6967 39.8542 14.139V21.5901H38.4587L37.2626 20.8123C36.3119 21.3256 35.2998 21.5901 34.2264 21.5901C31.2669 21.5745 29.8101 20.4234 29.8101 18.1212ZM37.0786 17.0167C36.3886 16.8923 35.5605 16.8301 34.5485 16.8301C33.2144 16.8301 32.5243 17.2812 32.5243 18.1212C32.5243 18.9612 33.0917 19.4123 34.1651 19.4123C35.2998 19.4123 36.2506 19.0856 37.0173 18.5101V17.0323H37.0786V17.0167ZM42.5837 21.5745V10.4678H44.7305L45.0525 11.8834C46.0033 10.9189 47.0153 10.4678 48.0887 10.4678V12.7078C47.0767 12.7078 46.1259 13.159 45.2979 14.1234V21.5745H42.5837ZM49.8062 8.67894H51.8303L52.275 10.4834H54.8052V12.7234H52.5971V17.8567C52.5971 18.8834 53.0418 19.3967 53.9312 19.3967H54.8206V21.6368H52.5357C50.6956 21.6368 49.7449 20.6101 49.7449 18.619V8.66339H49.8062V8.67894Z" fill="white"/>
</svg>
