<svg width="93" height="28" viewBox="0 0 93 28" fill="none" xmlns="http://www.w3.org/2000/svg">
<path d="M92.0062 19.0651H90.4333V27.3645H92.0062V19.0651Z" fill="white"/>
<path d="M89.5233 22.7943C89.5233 21.6864 89.1672 20.9148 87.2976 20.9148C86.1106 20.9148 85.1411 21.4094 85.1411 22.8042V22.9526H86.5557V22.7844C86.5419 22.6818 86.5507 22.5775 86.5816 22.4787C86.6125 22.3799 86.6646 22.2891 86.7345 22.2127C86.8043 22.1363 86.89 22.0761 86.9856 22.0365C87.0812 21.9968 87.1843 21.9786 87.2877 21.9831C87.812 21.9831 88.0148 22.27 88.0148 22.7349C88.0148 23.1999 87.8565 23.3285 87.3866 23.4571L86.5013 23.6945C85.4181 23.9912 84.9482 24.4611 84.9482 25.6086C84.9482 26.4296 85.339 27.3644 86.4321 27.3644C86.7429 27.4097 87.0602 27.3574 87.3402 27.2148C87.6201 27.0722 87.8489 26.8462 87.995 26.5681C88.0351 26.7874 88.0999 27.0014 88.1879 27.2062H89.6965C89.5355 26.8324 89.4692 26.4246 89.5036 26.0191L89.5233 22.7943ZM88.0395 25.3465C88.0425 25.4754 88.0187 25.6035 87.9695 25.7227C87.9203 25.8419 87.8469 25.9496 87.7539 26.0389C87.6608 26.1282 87.5503 26.1972 87.4291 26.2415C87.308 26.2858 87.179 26.3044 87.0503 26.2961C86.6299 26.2961 86.4617 25.9054 86.4617 25.4404C86.4617 24.8914 86.709 24.5848 87.3471 24.4512C87.597 24.3939 87.8326 24.2862 88.0395 24.1347V25.3465Z" fill="white"/>
<path d="M82.6781 20.9148C82.3616 20.8986 82.0469 20.9722 81.7704 21.1271C81.4938 21.282 81.2667 21.5119 81.1152 21.7902V20.9148H79.6313V27.3447H81.2042V23.1455C81.2042 22.4629 81.501 22.1563 82.0351 22.1563C82.5693 22.1563 82.7078 22.3937 82.7078 23.0119V27.3991H84.2856V22.6509C84.2411 21.449 83.6574 20.9148 82.6781 20.9148Z" fill="white"/>
<path d="M76.2577 20.9148C74.4574 20.9148 73.8391 22.0425 73.8391 24.1396C73.8391 26.2367 74.3634 27.399 76.2577 27.3644C78.0581 27.3644 78.6764 26.2367 78.6764 24.1396C78.6764 22.0425 78.1471 20.8801 76.2577 20.9148ZM76.2577 26.2961C75.4812 26.2961 75.412 25.3959 75.412 24.1396C75.412 22.8833 75.4812 21.9831 76.2577 21.9831C76.8958 21.9831 77.1035 22.6112 77.1035 24.1396C77.1035 25.6679 76.8958 26.2961 76.2577 26.2961Z" fill="white"/>
<path d="M68.2551 22.0524C68.8487 22.0524 68.9624 22.6904 68.9624 23.284H70.4462C70.4462 21.8348 69.6944 20.9148 68.2452 20.9148C66.796 20.9148 65.7722 21.6221 65.7722 24.1396C65.7722 26.6572 66.5487 27.3644 68.1216 27.3644C69.7835 27.3644 70.4561 26.4643 70.4561 24.8568H68.9723C68.9723 25.846 68.7349 26.2961 68.2106 26.2961C67.5033 26.2961 67.3648 25.6679 67.3648 24.1495C67.3302 22.7349 67.4539 22.0524 68.2551 22.0524Z" fill="white"/>
<path d="M64.8473 22.7943C64.8473 21.6864 64.4912 20.9148 62.6216 20.9148C61.4395 20.9148 60.4701 21.4094 60.4701 22.8042V22.9526H61.8797V22.7844C61.8658 22.6818 61.8747 22.5775 61.9055 22.4787C61.9364 22.3799 61.9886 22.2891 62.0584 22.2127C62.1282 22.1363 62.214 22.0761 62.3096 22.0365C62.4052 21.9968 62.5083 21.9786 62.6117 21.9831C63.136 21.9831 63.3388 22.27 63.3388 22.7399C63.3388 23.2098 63.1805 23.3285 62.7156 23.4571L61.8253 23.6945C60.7421 23.9912 60.2722 24.4611 60.2722 25.6086C60.2722 26.4296 60.663 27.3644 61.756 27.3644C62.0654 27.4075 62.3805 27.3542 62.6584 27.2117C62.9363 27.0692 63.1635 26.8445 63.3091 26.5681C63.3479 26.7883 63.4143 27.0027 63.5069 27.2062H64.9907C64.8313 26.8319 64.7651 26.4246 64.7978 26.0191L64.8473 22.7943ZM63.3388 25.3465C63.3418 25.4754 63.3179 25.6035 63.2688 25.7227C63.2196 25.8419 63.1461 25.9496 63.0531 26.0389C62.9601 26.1282 62.8495 26.1972 62.7284 26.2415C62.6073 26.2858 62.4782 26.3044 62.3496 26.2961C61.9242 26.2961 61.756 25.9054 61.756 25.4404C61.756 24.8914 62.0033 24.5848 62.6414 24.4512C62.8836 24.3944 63.1123 24.2902 63.314 24.1446L63.3388 25.3465Z" fill="white"/>
<path d="M57.374 22.0524C57.9675 22.0524 58.0813 22.6904 58.0813 23.284H59.5651C59.5651 21.8348 58.8133 20.9148 57.369 20.9148C55.9248 20.9148 54.896 21.6221 54.896 24.1396C54.896 26.6572 55.6725 27.3644 57.2454 27.3644C58.9072 27.3644 59.5799 26.4643 59.5799 24.8568H58.0961C58.0961 25.846 57.8587 26.2961 57.3344 26.2961C56.6271 26.2961 56.4886 25.6679 56.4886 24.1495C56.4639 22.7399 56.5875 22.0524 57.374 22.0524Z" fill="white"/>
<path d="M52.4278 25.1239C52.4278 25.8064 52.1311 26.1378 51.5919 26.1378C51.127 26.1378 50.9193 25.9004 50.9193 25.2822V20.9148H49.3267V25.6185C49.3267 26.8253 49.9103 27.3595 50.8896 27.3595C51.2062 27.3757 51.5208 27.3021 51.7974 27.1472C52.0739 26.9923 52.301 26.7624 52.4526 26.484V27.3595H53.9364V20.9296H52.4278V25.1239Z" fill="white"/>
<path d="M46.8437 21.6617C46.7096 21.4269 46.5138 21.2332 46.2776 21.1016C46.0413 20.97 45.7736 20.9054 45.5033 20.9149C44.2124 20.9149 43.6189 21.8596 43.6189 24.1397C43.6189 26.4198 44.2124 27.3645 45.5033 27.3645C45.7871 27.3768 46.0685 27.3074 46.314 27.1645C46.5595 27.0215 46.7588 26.8112 46.8882 26.5583V27.3645H48.372V19.0651H46.8437V21.6617ZM45.9979 26.1577C45.3154 26.1577 45.1769 25.4751 45.1769 24.1397C45.1769 22.8043 45.3154 22.1217 45.9979 22.1217C46.6805 22.1217 46.8338 22.8043 46.8338 24.1397C46.8338 25.4751 46.7052 26.1577 45.9979 26.1577Z" fill="white"/>
<path d="M40.4584 20.9148C38.3366 20.9148 38.02 22.4431 38.02 24.0803C38.02 25.6086 38.109 27.3644 40.3892 27.3644C41.873 27.3644 42.5555 26.5681 42.61 25.1437H41.2003C41.1064 25.8955 40.8887 26.2961 40.3644 26.2961C39.8402 26.2961 39.5929 25.5888 39.5929 24.8667V24.3721H42.7039V24.0209C42.7039 22.1563 42.2934 20.9148 40.4584 20.9148ZM39.5929 23.4422V23.2048C39.5929 22.636 39.7759 21.9831 40.3991 21.9831C41.0223 21.9831 41.1657 22.5074 41.2003 23.467L39.5929 23.4422Z" fill="white"/>
<path d="M72.9295 20.9197H71.3567V27.3693H72.9295V20.9197Z" fill="white"/>
<path d="M72.9295 19.0651H71.3567V20.4104H72.9295V19.0651Z" fill="white"/>
<path d="M21.5796 13.8815L32.3669 3.08921L29.6713 0.393616L18.8791 11.1809L16.1835 13.8815L18.8791 16.5771L13.4879 21.9732L2.6956 11.1809L0 13.8815L13.4879 27.3644L14.4474 26.4049L16.1835 24.6688L21.5796 19.2727L29.6713 27.3644L32.3669 24.6688L40.4587 16.5771L43.1543 13.8815L40.4587 11.1809L37.7631 8.48535L35.0625 5.78976L32.3669 8.48535L26.9708 13.8815L29.6713 16.5771L35.0625 11.1809L37.7631 13.8815L29.6713 21.9732L24.2752 16.5771L21.5796 13.8815Z" fill="white"/>
</svg>
