<svg width="93" height="29" viewBox="0 0 93 29" fill="none" xmlns="http://www.w3.org/2000/svg">
<mask id="mask0_974_46" style="mask-type:luminance" maskUnits="userSpaceOnUse" x="0" y="0" width="93" height="29">
<path d="M92.0064 0.393616H0V28.2202H92.0064V0.393616Z" fill="white"/>
</mask>
<g mask="url(#mask0_974_46)">
<path d="M17.2264 14.3068C17.2264 12.3483 15.66 10.7607 13.7277 10.7607C11.7955 10.7607 10.229 12.3483 10.229 14.3068C10.229 16.2653 11.7955 17.853 13.7277 17.853C15.66 17.853 17.2264 16.2653 17.2264 14.3068Z" fill="white"/>
<path d="M0.686226 20.0371C1.6569 20.0371 2.61808 20.231 3.51483 20.6076C4.41159 20.9841 5.22636 21.5361 5.91261 22.2319C6.59889 22.9277 7.14314 23.7537 7.51436 24.6627C7.88558 25.5718 8.07652 26.5461 8.07613 27.5299C8.07613 27.7144 8.00383 27.8913 7.87519 28.0217C7.74648 28.1521 7.57195 28.2254 7.3899 28.2254H0.686226C0.504228 28.2254 0.329684 28.1521 0.200991 28.0217C0.0722988 27.8913 0 27.7144 0 27.5299V20.7326C0 20.5482 0.0722988 20.3713 0.200991 20.2408C0.329684 20.1104 0.504228 20.0371 0.686226 20.0371Z" fill="white"/>
<path d="M8.07634 1.08909C8.07667 2.07293 7.8858 3.0472 7.51451 3.95625C7.14329 4.8653 6.59904 5.69132 5.91278 6.38712C5.22652 7.08292 4.41175 7.63488 3.51499 8.01147C2.61824 8.38805 1.65706 8.58185 0.686387 8.58185C0.595836 8.58218 0.506108 8.56435 0.422381 8.52944C0.338653 8.49446 0.262582 8.44304 0.19855 8.37812C0.134518 8.31325 0.083793 8.23613 0.0492975 8.15126C0.0148028 8.06639 -0.00277996 7.97549 -0.00243647 7.88366V1.08909C-0.00243647 0.997748 0.0153133 0.907304 0.0497993 0.822918C0.0842852 0.738532 0.134833 0.661857 0.198555 0.597271C0.262277 0.532685 0.337926 0.481453 0.421183 0.446499C0.504439 0.411545 0.593673 0.393555 0.683792 0.393555H7.39012C7.48019 0.393555 7.56942 0.411545 7.6527 0.446499C7.73597 0.481453 7.8116 0.532685 7.87534 0.597271C7.93907 0.661857 7.9896 0.738532 8.02411 0.822918C8.05856 0.907304 8.07634 0.997748 8.07634 1.08909Z" fill="white"/>
<path d="M26.7681 8.57931C24.8082 8.57931 22.9285 7.79016 21.5426 6.38549C20.1567 4.98082 19.3782 3.07566 19.3782 1.08916C19.3778 0.997598 19.3953 0.906871 19.4296 0.822181C19.4639 0.73749 19.5145 0.660504 19.5782 0.595639C19.642 0.530774 19.7178 0.479305 19.8012 0.444187C19.8846 0.409068 19.9741 0.390991 20.0644 0.390991H26.7681C26.9501 0.390991 27.1246 0.464271 27.2533 0.594708C27.382 0.725145 27.4543 0.902057 27.4543 1.08652V7.88378C27.4543 7.97508 27.4365 8.06558 27.4021 8.14992C27.3676 8.23433 27.317 8.31098 27.2533 8.37558C27.1896 8.44018 27.1139 8.49139 27.0307 8.52637C26.9474 8.56129 26.8582 8.57931 26.7681 8.57931Z" fill="white"/>
<path d="M19.3801 27.5246C19.3801 25.5381 20.1587 23.6329 21.5446 22.2283C22.9305 20.8236 24.8101 20.0345 26.7701 20.0345C26.9521 20.0345 27.1266 20.1078 27.2553 20.2381C27.384 20.3686 27.4563 20.5455 27.4563 20.73V27.5246C27.4563 27.709 27.384 27.8859 27.2553 28.0164C27.1266 28.1469 26.9521 28.2201 26.7701 28.2201H20.0664C19.8844 28.2201 19.7098 28.1469 19.5811 28.0164C19.4524 27.8859 19.3801 27.709 19.3801 27.5246Z" fill="white"/>
<path d="M13.7268 20.0371C14.2568 20.0371 14.7818 20.143 15.2715 20.3486C15.7613 20.5542 16.2063 20.8555 16.5812 21.2355C16.956 21.6155 17.2534 22.0665 17.4562 22.5629C17.6591 23.0593 17.7635 23.5914 17.7635 24.1287V27.5299C17.7635 27.7144 17.6912 27.8913 17.5625 28.0217C17.4338 28.1521 17.2593 28.2254 17.0773 28.2254H10.3762C10.1942 28.2254 10.0197 28.1521 9.89095 28.0217C9.76224 27.8913 9.68994 27.7144 9.68994 27.5299V24.1287C9.68994 23.0435 10.1153 22.0028 10.8723 21.2355C11.6293 20.4682 12.6561 20.0371 13.7268 20.0371Z" fill="white"/>
<path d="M8.07642 14.3094C8.07675 14.8472 7.97249 15.3797 7.76959 15.8766C7.56675 16.3735 7.2692 16.8249 6.89406 17.2052C6.51889 17.5855 6.07346 17.8871 5.58323 18.0926C5.09299 18.2983 4.56758 18.404 4.03702 18.4036H0.686468C0.504472 18.4036 0.329926 18.3303 0.201233 18.1999C0.0725413 18.0694 0.000244141 17.8926 0.000244141 17.708V10.9108C0.000244141 10.8195 0.0179939 10.729 0.0524799 10.6447C0.0869659 10.5603 0.137512 10.4836 0.201233 10.419C0.264955 10.3544 0.340606 10.3032 0.423862 10.2682C0.507119 10.2333 0.596353 10.2153 0.686468 10.2153H4.03702C4.56758 10.2149 5.09299 10.3206 5.58323 10.5262C6.07346 10.7319 6.51889 11.0334 6.89406 11.4137C7.2692 11.7939 7.56675 12.2454 7.76959 12.7423C7.97249 13.2392 8.07675 13.7717 8.07642 14.3094Z" fill="white"/>
<path d="M13.727 8.57931C13.1967 8.57931 12.6715 8.47337 12.1816 8.26759C11.6917 8.06181 11.2465 7.76022 10.8716 7.37999C10.4968 6.99978 10.1995 6.54842 9.99676 6.05171C9.79406 5.555 9.68986 5.02268 9.69019 4.48515V1.08916C9.68986 0.997598 9.70738 0.906871 9.7417 0.822181C9.77602 0.73749 9.82655 0.660504 9.89028 0.595639C9.95401 0.530774 10.0298 0.479305 10.1132 0.444187C10.1967 0.409068 10.2861 0.390991 10.3764 0.390991H17.0802C17.2621 0.390991 17.4367 0.464271 17.5654 0.594708C17.6941 0.725146 17.7664 0.902057 17.7664 1.08652V4.48515C17.7667 5.02289 17.6624 5.55544 17.4596 6.05232C17.2567 6.5492 16.9592 7.00067 16.584 7.38092C16.2089 7.76115 15.7635 8.06273 15.2732 8.26838C14.783 8.47397 14.2575 8.57964 13.727 8.57931Z" fill="white"/>
<path d="M19.3801 14.3123C19.3801 13.2272 19.8055 12.1865 20.5625 11.4192C21.3195 10.6519 22.3463 10.2208 23.4169 10.2208H26.7701C26.9521 10.2208 27.1266 10.2941 27.2553 10.4246C27.384 10.555 27.4563 10.7319 27.4563 10.9164V17.7057C27.4563 17.8902 27.384 18.067 27.2553 18.1975C27.1266 18.328 26.9521 18.4012 26.7701 18.4012H23.4195C22.8894 18.4016 22.3644 18.2961 21.8745 18.0908C21.3846 17.8855 20.9394 17.5844 20.5643 17.2047C20.1892 16.825 19.8916 16.3742 19.6884 15.8779C19.4852 15.3817 19.3805 14.8496 19.3801 14.3123Z" fill="white"/>
<path d="M40.2929 11.8357C37.2621 11.8357 35.6609 9.5937 35.6609 6.99072C35.6609 4.33242 37.4284 2.03242 40.3683 2.03242C40.963 2.01084 41.5558 2.11336 42.1098 2.33362C42.6638 2.55388 43.1672 2.88717 43.5889 3.31283C43.6554 3.38113 43.7072 3.46269 43.741 3.55233C43.7748 3.64198 43.7898 3.73777 43.7852 3.83363C43.7806 3.92948 43.7563 4.02331 43.714 4.10918C43.6717 4.19504 43.6123 4.27106 43.5395 4.33242L43.2796 4.55372C43.1481 4.66088 42.9819 4.71434 42.8136 4.70361C42.6453 4.69289 42.4869 4.61875 42.3698 4.49577C42.1113 4.23187 41.8016 4.02533 41.4601 3.88927C41.1187 3.7532 40.7531 3.69058 40.3865 3.70539C38.4526 3.70539 37.483 5.15705 37.483 6.8669C37.483 8.57677 38.5435 10.1627 40.4411 10.1627C40.8701 10.164 41.2946 10.0728 41.6862 9.89522C42.0779 9.71759 42.4278 9.45768 42.7129 9.13264C42.828 9.00463 42.985 8.92341 43.1547 8.90399C43.3245 8.88465 43.4954 8.92844 43.6356 9.02729L43.7683 9.12475C43.8448 9.18173 43.909 9.25414 43.9568 9.33743C44.0046 9.42071 44.0349 9.513 44.0459 9.60873C44.0569 9.7044 44.0482 9.80133 44.0206 9.89349C43.9929 9.98565 43.9468 10.0711 43.8852 10.1443C43.4512 10.6828 42.9026 11.1147 42.2805 11.4077C41.6583 11.7006 40.9788 11.847 40.2929 11.8357Z" fill="white"/>
<path d="M54.7857 6.93536C54.7857 9.74384 52.8128 11.8357 50.042 11.8357C47.271 11.8357 45.3501 9.74384 45.2981 6.93536C45.2462 4.12689 47.2242 2.08508 50.042 2.03239C52.8128 1.9797 54.7857 4.10318 54.7857 6.93536ZM47.1202 6.93536C47.1202 8.81908 48.2926 10.1575 50.042 10.1575C51.7913 10.1575 52.961 8.81908 52.961 6.93536C52.961 5.05163 51.7913 3.71062 50.042 3.71062C48.2926 3.71062 47.1202 5.049 47.1202 6.93536Z" fill="white"/>
<path d="M70.564 5.59445V11.027C70.564 11.2115 70.4914 11.3884 70.3627 11.5188C70.2345 11.6492 70.06 11.7225 69.8776 11.7225H69.4227C69.241 11.7225 69.0664 11.6492 68.9377 11.5188C68.8089 11.3884 68.7363 11.2115 68.7363 11.027V5.94749C68.7363 4.51427 68.0114 3.68438 66.8753 3.68438C65.6307 3.68438 64.5517 4.68289 64.5517 6.71942V11.027C64.5517 11.2115 64.4794 11.3884 64.3507 11.5188C64.222 11.6492 64.0475 11.7225 63.8654 11.7225H63.4158C63.2338 11.7225 63.0593 11.6492 62.9305 11.5188C62.8018 11.3884 62.7295 11.2115 62.7295 11.027V5.94749C62.7295 4.51427 62.0225 3.68438 60.8684 3.68438C59.6415 3.68438 58.5628 4.68289 58.5628 6.71942V11.027C58.5628 11.2115 58.4905 11.3884 58.3618 11.5188C58.2331 11.6492 58.0586 11.7225 57.8765 11.7225H57.4243C57.2423 11.7225 57.0678 11.6492 56.939 11.5188C56.8103 11.3884 56.738 11.2115 56.738 11.027V2.95459C56.738 2.86281 56.756 2.77193 56.7908 2.6872C56.8256 2.60247 56.8766 2.52556 56.9409 2.4609C57.0051 2.39625 57.0814 2.34512 57.1653 2.31049C57.2491 2.27584 57.339 2.25837 57.4295 2.25906H57.8427C58.0248 2.25906 58.1993 2.33234 58.328 2.46278C58.4567 2.59322 58.529 2.77013 58.529 2.95459V3.82401C59.106 2.71221 59.982 2.03249 61.3883 2.03249C62.8595 2.03249 63.8992 2.74909 64.3282 4.05058C64.5707 3.43726 64.9937 2.91452 65.5399 2.55345C66.0857 2.19237 66.7283 2.01048 67.38 2.03249C69.3005 2.03249 70.564 3.3129 70.564 5.59445Z" fill="white"/>
<path d="M39.734 26.584C38.3664 26.5899 37.0458 26.0789 36.0299 25.1508C35.8987 25.0244 35.8219 24.8507 35.816 24.6673C35.8102 24.4838 35.8758 24.3055 35.9987 24.1707L36.2041 23.9468C36.2669 23.8791 36.3423 23.8246 36.426 23.7866C36.5098 23.7487 36.6001 23.7281 36.6918 23.7259C36.7835 23.7236 36.8747 23.7399 36.96 23.7738C37.0455 23.8076 37.1234 23.8584 37.1893 23.9231C37.9301 24.5795 38.8799 24.9426 39.864 24.9453C40.8335 24.9453 41.5769 24.587 41.5769 23.8124C41.5769 23.0378 40.7972 22.7955 39.604 22.5505C38.0444 22.229 36.0507 21.8339 36.0507 19.684C36.0507 17.7423 37.6884 16.786 39.4923 16.786C40.4982 16.7726 41.4838 17.0734 42.3152 17.6475C42.3909 17.7028 42.4547 17.7735 42.5023 17.8549C42.5499 17.9364 42.5804 18.027 42.5919 18.121C42.6034 18.215 42.5955 18.3104 42.569 18.4012C42.5424 18.492 42.4976 18.5763 42.4373 18.6487L42.3073 18.812C42.2007 18.9403 42.0525 19.0261 41.8892 19.0541C41.726 19.0821 41.5582 19.0504 41.4158 18.9648C40.8226 18.5889 40.1373 18.389 39.4376 18.3878C38.5825 18.3878 37.8573 18.7645 37.8573 19.576C37.8573 20.4823 38.7489 20.6878 40.0511 20.9328C41.5952 21.2542 43.3991 21.5941 43.3991 23.5911C43.3991 25.5302 41.6705 26.584 39.734 26.584Z" fill="white"/>
<path d="M49.3564 26.5841C46.323 26.5841 44.7244 24.3421 44.7244 21.7391C44.7244 19.0808 46.492 16.7808 49.4292 16.7808C50.0247 16.7599 50.6181 16.8632 51.1725 17.0844C51.727 17.3055 52.2307 17.6398 52.6524 18.0665C52.7185 18.135 52.77 18.2166 52.8036 18.3062C52.8372 18.3958 52.8521 18.4915 52.8475 18.5873C52.8429 18.683 52.8187 18.7767 52.7766 18.8625C52.7346 18.9484 52.6754 19.0245 52.603 19.0861L52.3431 19.3074C52.2116 19.4146 52.0454 19.468 51.877 19.4573C51.7087 19.4466 51.5504 19.3724 51.4333 19.2495C51.1746 18.9858 50.8648 18.7795 50.5234 18.6434C50.1821 18.5074 49.8165 18.4446 49.45 18.4591C47.5135 18.4591 46.5465 19.9107 46.5465 21.6205C46.5465 23.3304 47.6071 24.9165 49.5045 24.9165C49.9332 24.9177 50.3573 24.8264 50.7485 24.6488C51.1398 24.4712 51.4892 24.2113 51.7738 23.8864C51.8889 23.7584 52.0459 23.6771 52.2157 23.6577C52.3853 23.6383 52.5563 23.6821 52.6966 23.7809L52.8317 23.8784C52.908 23.9356 52.9719 24.0082 53.0195 24.0914C53.067 24.1747 53.0972 24.267 53.1082 24.3625C53.1191 24.4581 53.1106 24.5549 53.0832 24.647C53.0557 24.7391 53.01 24.8246 52.9487 24.898C52.5139 25.4351 51.9649 25.8657 51.3429 26.1577C50.7209 26.4496 50.0418 26.5954 49.3564 26.5841Z" fill="white"/>
<path d="M63.2527 20.3427V25.7751C63.2527 25.9597 63.1804 26.1365 63.0517 26.267C62.9229 26.3974 62.7484 26.4707 62.5664 26.4707H62.1142C61.9321 26.4707 61.7576 26.3974 61.6289 26.267C61.5002 26.1365 61.4279 25.9597 61.4279 25.7751V20.701C61.4279 19.2677 60.5363 18.4378 59.3484 18.4378C58.0826 18.4378 56.7257 19.4363 56.7257 21.4729V25.7726C56.7257 25.957 56.6534 26.1339 56.5247 26.2644C56.396 26.3948 56.2214 26.4681 56.0394 26.4681H55.5898C55.4078 26.4681 55.2332 26.3948 55.1046 26.2644C54.9759 26.1339 54.9036 25.957 54.9036 25.7726V14.4623C54.9036 14.2777 54.9759 14.1008 55.1046 13.9705C55.2332 13.84 55.4078 13.7667 55.5898 13.7667H56.0394C56.2214 13.7667 56.396 13.84 56.5247 13.9705C56.6534 14.1008 56.7257 14.2777 56.7257 14.4623V18.5143C57.046 17.9697 57.5041 17.5219 58.0525 17.2171C58.6009 16.9124 59.2198 16.7617 59.8449 16.7807C61.7814 16.7807 63.2527 18.0664 63.2527 20.3427Z" fill="white"/>
<path d="M74.6226 21.6837C74.6226 24.4922 72.6525 26.5841 69.8789 26.5841C67.1054 26.5841 65.1375 24.4922 65.1375 21.6837C65.1375 18.8752 67.108 16.7808 69.8789 16.7808C72.6499 16.7808 74.6226 18.8568 74.6226 21.6837ZM66.9596 21.6837C66.9596 23.5675 68.1317 24.9058 69.8789 24.9058C71.6255 24.9058 72.8028 23.5675 72.8028 21.6837C72.8028 19.8 71.6308 18.459 69.8815 18.459C68.1317 18.459 66.9675 19.7974 66.9675 21.6837H66.9596Z" fill="white"/>
<path d="M85.5392 21.6837C85.5392 24.4922 83.569 26.5841 80.7955 26.5841C78.0219 26.5841 76.0518 24.4922 76.0518 21.6837C76.0518 18.8752 78.0245 16.7808 80.7955 16.7808C83.5664 16.7808 85.5392 18.8568 85.5392 21.6837ZM77.8762 21.6837C77.8762 23.5675 79.0488 24.9058 80.7955 24.9058C82.5421 24.9058 83.7193 23.5675 83.7193 21.6837C83.7193 19.8 82.5473 18.459 80.7981 18.459C79.0488 18.459 77.8814 19.7974 77.8814 21.6837H77.8762Z" fill="white"/>
<path d="M91.9269 25.2983C91.8706 25.1294 91.753 24.9885 91.5981 24.9043C91.4432 24.8202 91.2621 24.799 91.0921 24.8451C90.9307 24.8853 90.7646 24.9057 90.5986 24.9058C89.873 24.9058 89.2984 24.3788 89.2984 23.3987V14.4148C89.2984 14.243 89.2311 14.078 89.1115 13.9565C88.9912 13.835 88.8291 13.7667 88.6592 13.7667H86.2909C86.1216 13.7667 85.9588 13.835 85.8392 13.9565C85.7189 14.078 85.6516 14.243 85.6516 14.4148V14.9681C85.6516 15.14 85.7189 15.3048 85.8392 15.4264C85.9588 15.5479 86.1216 15.6162 86.2909 15.6162H87.4767V23.599C87.4767 25.5222 88.7036 26.5761 90.211 26.5761C90.677 26.5758 91.1392 26.4864 91.5732 26.3127C91.7366 26.2475 91.8693 26.1215 91.9445 25.9603C92.019 25.7992 92.0308 25.6151 91.9759 25.4459L91.9269 25.2983Z" fill="white"/>
</g>
</svg>
