<svg width="70" height="40" viewBox="0 0 70 40" fill="none" xmlns="http://www.w3.org/2000/svg">
<path d="M10.7386 28.093C10.3937 27.3451 9.90613 26.6936 9.28774 26.1628C8.64556 25.62 7.90825 25.2098 7.09959 24.9444C6.23147 24.667 5.31577 24.5101 4.38819 24.5222H0.547037C0.249734 24.5222 0 24.7635 0 25.0771V36.3204C0 36.622 0.237842 36.8753 0.547037 36.8753H4.40008C5.32766 36.8753 6.23147 36.7185 7.11148 36.4049C7.90825 36.1274 8.64556 35.7052 9.29963 35.1382C9.90613 34.5953 10.4056 33.9318 10.7505 33.1839C11.4283 31.5674 11.4283 29.7216 10.7386 28.093ZM7.63473 32.0499C7.46824 32.448 7.20662 32.7978 6.88553 33.0874C6.56444 33.3769 6.1839 33.594 5.76767 33.7388C5.31577 33.8956 4.85198 33.968 4.3763 33.968H3.29411V27.4416H4.3763C4.84009 27.4416 5.31577 27.5019 5.76767 27.6467C6.172 27.7673 6.56444 27.9603 6.88553 28.2378C7.19473 28.5153 7.45635 28.853 7.63473 29.2391C7.8369 29.6854 7.92015 30.18 7.90825 30.6746C7.90825 31.1331 7.82501 31.6156 7.63473 32.0499Z" fill="white"/>
<path d="M65.7275 24.5224H69.533C69.6281 24.5224 69.6995 24.5948 69.6995 24.6913V36.7067C69.6995 36.8032 69.6281 36.8756 69.533 36.8756H65.7275C65.6324 36.8756 65.561 36.8032 65.561 36.7067V24.6913C65.561 24.5948 65.6324 24.5224 65.7275 24.5224Z" fill="white"/>
<path d="M62.7906 28.1656C62.5171 27.4418 62.1127 26.7904 61.6014 26.2234C61.09 25.6805 60.4716 25.2341 59.7819 24.9567C59.0446 24.643 58.2597 24.4862 57.4629 24.4983C56.7018 24.4983 56.024 24.631 55.4532 24.8964C55.0369 25.0773 54.6564 25.3427 54.3353 25.6564L54.3115 25.6684C54.2877 25.6926 54.2402 25.7167 54.1926 25.7167C54.0975 25.7167 54.0261 25.6443 54.0261 25.5478V24.7033C54.0261 24.6551 54.0142 24.6068 53.9904 24.5827C53.9667 24.5465 53.9191 24.5224 53.8596 24.5224H50.8271C50.732 24.5224 50.6606 24.5948 50.6606 24.6913V39.8311C50.6606 39.9276 50.732 40 50.8271 40H54.2283C54.3234 40 54.3948 39.9276 54.3948 39.8311V36.1276C54.3948 36.0311 54.4661 35.9587 54.5613 35.9587C54.5969 35.9587 54.6326 35.9828 54.6683 35.9949C55.3818 36.5619 56.3094 36.8394 57.4748 36.8394C58.2716 36.8514 59.0565 36.6946 59.7938 36.3809C60.4835 36.0914 61.1019 35.6571 61.6133 35.0901C62.1365 34.5111 62.5409 33.8476 62.8025 33.1238C63.0998 32.3276 63.2425 31.4952 63.2306 30.6387C63.2306 29.7942 63.076 28.9497 62.7906 28.1656ZM58.7948 31.7485C58.664 32.038 58.4857 32.3155 58.2597 32.5447C58.0456 32.7498 57.7959 32.9187 57.5105 33.0152C57.237 33.1117 56.9397 33.172 56.6424 33.172C56.357 33.172 56.0716 33.1117 55.7861 33.0152C55.5007 32.9187 55.251 32.7498 55.0369 32.5447C54.811 32.3155 54.6326 32.0501 54.5018 31.7485C54.2283 31.0368 54.2283 30.2406 54.5018 29.5288C54.6207 29.2393 54.7991 28.9739 55.0369 28.7567C55.251 28.5516 55.5007 28.4069 55.7861 28.3104C56.357 28.1174 56.9635 28.1174 57.5224 28.3224C57.7959 28.4189 58.0575 28.5878 58.2716 28.7929C58.4975 29.0221 58.664 29.2875 58.7948 29.5771C58.9257 29.9269 58.997 30.2888 58.9851 30.6628C58.997 31.0368 58.9257 31.4107 58.7948 31.7485Z" fill="white"/>
<path d="M34.9511 24.5224L32.8106 29.0825L32.3349 30.1079L29.7543 24.5224H25.3899L31.3835 36.2965C31.3716 36.2724 31.3597 36.2603 31.3597 36.2362C31.3716 36.2603 31.3835 36.2844 31.3835 36.2965L31.3954 36.3206C31.6808 36.8514 32.3349 37.0444 32.8581 36.7549C33.0603 36.6343 33.2387 36.4533 33.3219 36.2241L33.4409 36.019L39.3156 24.5345L34.9511 24.5224Z" fill="white"/>
<path d="M48.6862 36.0069C48.71 36.0311 48.71 36.0552 48.7219 36.0673L43.6083 24.8601C43.5131 24.5827 43.2039 24.4259 42.9185 24.5344C42.7639 24.5947 42.645 24.7033 42.5974 24.8601L37.4957 36.0431C37.353 36.3085 37.4482 36.6463 37.7098 36.779C37.793 36.8273 37.8763 36.8393 37.9714 36.8393H40.6709C40.885 36.8393 41.0871 36.7066 41.1704 36.5136L43.1088 32.0742L45.0353 36.5257C45.1305 36.7308 45.3088 36.8514 45.5348 36.8514H48.2462C48.5554 36.8514 48.7932 36.5981 48.7813 36.2965C48.7813 36.2 48.7576 36.1034 48.6862 36.0069Z" fill="white"/>
<path d="M24.7594 27.9606C24.4977 27.2971 24.1172 26.6939 23.6177 26.1872C23.0945 25.6564 22.488 25.2462 21.7982 24.9688C21.0371 24.6551 20.2285 24.5104 19.4079 24.5224C18.5398 24.5104 17.6954 24.6793 16.8868 24.9929C16.1376 25.2824 15.4359 25.7288 14.8413 26.2837C13.0337 28.0571 12.4867 30.7834 13.4856 33.1359C13.8067 33.8838 14.2824 34.5473 14.877 35.1022C15.5073 35.6692 16.2208 36.1035 17.0176 36.393C17.8857 36.7188 18.8133 36.8876 19.7409 36.8756C21.2869 36.8876 22.7972 36.4292 24.0934 35.5848C24.3431 35.4279 24.4383 35.0902 24.2837 34.8368C24.2599 34.8006 24.2361 34.7765 24.2123 34.7403C24.2361 34.7644 24.2361 34.7765 24.2599 34.8006L23.3085 33.0393C23.1777 32.7739 22.8804 32.6533 22.6069 32.7739H22.595C22.2501 32.9549 21.8815 33.0997 21.5128 33.2082C20.9777 33.3771 20.4306 33.4495 19.8717 33.4495C19.2176 33.4495 18.6587 33.3409 18.1949 33.1238C17.743 32.9187 17.3863 32.5568 17.1722 32.1104H24.4383C24.7356 32.1104 24.9853 31.8692 24.9853 31.5555C24.9853 31.5917 24.9853 31.6158 24.9734 31.652C24.9972 31.5073 25.0329 31.3384 25.0567 31.1815C25.1042 30.8317 25.128 30.4698 25.128 30.1079C25.1518 29.3599 25.0091 28.6361 24.7594 27.9606ZM17.0652 29.4685C17.2435 28.9015 17.529 28.4672 17.9095 28.1656C18.7063 27.5504 19.8241 27.5504 20.6209 28.1777C21.0133 28.4914 21.2155 28.9256 21.2393 29.4685H17.0652Z" fill="white"/>
<path d="M54.5015 13.0498C53.8951 9.8409 51.148 7.37992 47.7587 7.01802C46.5101 5.02752 44.8214 3.3748 42.8116 2.1805C37.8764 -0.726834 31.7876 -0.726834 26.8524 2.1805C24.8545 3.3748 23.1539 5.02752 21.9053 7.01802C18.516 7.37992 15.7689 9.8409 15.1624 13.0498C13.8186 13.6409 12.9624 14.9318 12.9624 16.3553C12.9624 18.3578 14.6749 19.9985 16.756 19.9985C18.8371 19.9985 20.5615 18.3699 20.5615 16.3553C20.5615 15.0524 19.8479 13.8581 18.6706 13.2067C19.2058 11.4695 20.8825 10.2752 22.7972 10.2752L23.5464 10.2993C23.7604 10.2993 23.9745 10.2028 24.1172 10.0219L24.4859 9.37042C26.4718 5.6307 30.4438 3.30242 34.8439 3.30242C39.244 3.30242 43.2159 5.6307 45.2019 9.37042L45.5349 9.98567H45.5468C45.6895 10.1787 45.9154 10.2873 46.1533 10.2873L46.9025 10.2631C48.8171 10.2631 50.4939 11.4574 51.0291 13.1946C49.8517 13.846 49.1382 15.0403 49.1382 16.3432C49.1382 18.3458 50.8507 19.9864 52.9318 19.9864C55.0129 19.9864 56.7254 18.3578 56.7254 16.3553C56.7135 14.9318 55.8454 13.653 54.5015 13.0498ZM54.0615 16.3553C54.0615 16.9584 53.5383 17.4531 52.8961 17.4531C52.2539 17.4531 51.7307 16.9584 51.7307 16.3553C51.7307 15.7521 52.2539 15.2575 52.8961 15.2575C53.5502 15.2575 54.0615 15.7521 54.0615 16.3553ZM17.9333 16.3553C17.9333 16.9705 17.3982 17.4651 16.756 17.4651C16.1138 17.4651 15.5787 16.9584 15.5787 16.3553C15.5787 15.74 16.1138 15.2454 16.756 15.2454C17.3982 15.2454 17.9333 15.74 17.9333 16.3553Z" fill="white"/>
</svg>
