<svg width="105" height="22" viewBox="0 0 105 22" fill="none" xmlns="http://www.w3.org/2000/svg">
<mask id="mask0_1192_20" style="mask-type:luminance" maskUnits="userSpaceOnUse" x="0" y="0" width="105" height="22">
<path d="M104.225 0.235229H0V21.5473H104.225V0.235229Z" fill="white"/>
</mask>
<g mask="url(#mask0_1192_20)">
<path d="M38.261 9.5054C38.3269 9.39859 38.3547 9.27254 38.3398 9.14788V7.70932C38.329 7.59045 38.2835 7.47739 38.2087 7.38431L37.7116 6.77799C37.6508 6.7073 37.6159 6.61799 37.6127 6.5248C37.6095 6.43161 37.6382 6.34011 37.6941 6.26543L38.2215 5.5909C38.291 5.49638 38.332 5.384 38.3398 5.26696V3.90992C38.3549 3.78128 38.327 3.65125 38.2604 3.54015L37.1725 2.45217C37.0614 2.38558 36.9313 2.35766 36.8027 2.37278H30.8253C30.7971 2.37278 30.7699 2.38401 30.75 2.404C30.73 2.42398 30.7188 2.45108 30.7188 2.47934V10.5619C30.7188 10.6477 30.7417 10.6685 30.8253 10.6685H36.8027C36.9093 10.6685 37.0925 10.6685 37.1677 10.5944L38.261 9.5054ZM36.6333 9.05145H32.4125V7.26656H36.6343L36.6333 9.05145ZM36.6333 5.77952H32.4125V3.98184H36.6343L36.6333 5.77952Z" fill="white"/>
<path d="M47.4884 9.13352V3.88383C47.5035 3.75917 47.4757 3.63309 47.4096 3.52632L46.3211 2.43781C46.2099 2.3714 46.0799 2.34367 45.9513 2.35896H41.3906C41.266 2.34432 41.1401 2.37209 41.0331 2.43781L39.9409 3.53112C39.8782 3.63718 39.8522 3.76096 39.8669 3.8833V9.13352C39.852 9.25604 39.878 9.38004 39.9409 9.48624L41.0395 10.5843C41.1458 10.6471 41.2697 10.6732 41.3922 10.6584H45.9529C46.0595 10.6584 46.2422 10.6584 46.3174 10.5843L47.4107 9.49103C47.4767 9.38425 47.5045 9.25819 47.4895 9.13352M45.5752 8.84208H41.7689V4.18806H45.5752V8.84208Z" fill="white"/>
<path d="M64.168 2.36591H62.4833C62.3975 2.36591 62.3767 2.38882 62.3767 2.47247V10.5567C62.3767 10.6424 62.3996 10.6632 62.4833 10.6632H64.168C64.2537 10.6632 64.2745 10.6398 64.2745 10.5567V2.4746C64.2745 2.38935 64.2511 2.36804 64.168 2.36804" fill="white"/>
<path d="M72.4059 2.45167C72.2947 2.38526 72.1647 2.35753 72.0361 2.37281H66.0529C66.0246 2.37281 65.9975 2.38404 65.9775 2.40402C65.9575 2.42401 65.9463 2.45111 65.9463 2.47937V10.5636C65.9463 10.6493 65.9692 10.6701 66.0529 10.6701H72.0361C72.1427 10.6701 72.3259 10.6701 72.4011 10.5961L73.4943 9.50276C73.5605 9.39601 73.5883 9.26992 73.5732 9.14525V3.89769C73.5883 3.77302 73.5605 3.64692 73.4943 3.54018L72.4059 2.45167ZM71.6599 8.8554H67.8473V4.20192H71.6599V8.8554Z" fill="white"/>
<path d="M82.4309 2.3728H75.349C75.3207 2.3728 75.2936 2.38403 75.2736 2.40401C75.2536 2.424 75.2424 2.4511 75.2424 2.47936V10.5636C75.2424 10.6493 75.2653 10.6701 75.349 10.6701H82.4309C82.4591 10.6701 82.4862 10.6589 82.5062 10.6389C82.5262 10.6189 82.5374 10.5918 82.5374 10.5636V9.03762C82.5374 9.02362 82.5346 9.00976 82.5293 8.99684C82.5239 8.98391 82.5161 8.97216 82.5062 8.96227C82.4963 8.95237 82.4846 8.94452 82.4716 8.93917C82.4587 8.93381 82.4449 8.93105 82.4309 8.93105H77.3267C77.3022 8.93219 77.2777 8.9282 77.2548 8.91934C77.232 8.91048 77.2112 8.89694 77.1938 8.87959C77.1765 8.86224 77.1629 8.84146 77.1541 8.81858C77.1452 8.7957 77.1412 8.77122 77.1424 8.74671V7.4504C77.1411 7.42587 77.1451 7.40135 77.1539 7.37843C77.1627 7.35551 77.1763 7.3347 77.1936 7.31733C77.211 7.29996 77.2318 7.28643 77.2547 7.27759C77.2777 7.26876 77.3022 7.26483 77.3267 7.26605H81.8309C81.8434 7.26691 81.8559 7.26496 81.8675 7.26035C81.8791 7.25574 81.8896 7.24858 81.8981 7.23941C81.918 7.21685 81.9283 7.18741 81.9268 7.15736V5.88769C81.9283 5.85764 81.918 5.82821 81.8981 5.80564C81.8894 5.79649 81.8789 5.78935 81.8672 5.78474C81.8555 5.78014 81.8429 5.77818 81.8304 5.779H77.324C77.3004 5.78077 77.2767 5.77762 77.2543 5.76976C77.232 5.7619 77.2115 5.74949 77.1942 5.73333C77.1769 5.71716 77.1631 5.69758 77.1537 5.67582C77.1443 5.65406 77.1395 5.6306 77.1397 5.60691V4.30101C77.1385 4.27648 77.1424 4.25196 77.1512 4.22904C77.1601 4.20613 77.1736 4.18531 77.191 4.16794C77.2083 4.15057 77.2292 4.13704 77.2521 4.12821C77.275 4.11937 77.2995 4.11544 77.324 4.11666H82.4282C82.4583 4.11808 82.4878 4.10755 82.5102 4.08736C82.5195 4.07884 82.5267 4.06832 82.5313 4.05659C82.536 4.04487 82.5378 4.03225 82.5369 4.01969V2.48149C82.5369 2.45323 82.5256 2.42613 82.5057 2.40615C82.4857 2.38616 82.4586 2.37493 82.4303 2.37493" fill="white"/>
<path d="M86 2.35895H84.3153C84.2301 2.35895 84.2087 2.38186 84.2087 2.46551V10.5497C84.2087 10.6355 84.2317 10.6563 84.3153 10.6563H86C86.0858 10.6563 86.1065 10.6328 86.1065 10.5497V2.46764C86.1065 2.38239 86.0836 2.36108 86 2.36108" fill="white"/>
<path d="M94.2316 2.45165C94.1205 2.38501 93.9904 2.35727 93.8618 2.3728H89.3011C89.1764 2.35773 89.0504 2.38554 88.9436 2.45165L87.8551 3.54016C87.789 3.6408 87.7611 3.76173 87.7763 3.88116V10.5758C87.7762 10.5894 87.779 10.6028 87.7845 10.6152C87.7899 10.6276 87.7979 10.6387 87.808 10.6478C87.8181 10.6569 87.8299 10.6638 87.8428 10.668C87.8557 10.6722 87.8693 10.6737 87.8828 10.6722H89.584C89.5971 10.6739 89.6104 10.6725 89.6228 10.6683C89.6353 10.664 89.6465 10.6569 89.6559 10.6476C89.6652 10.6383 89.6722 10.627 89.6765 10.6146C89.6808 10.6021 89.6821 10.5889 89.6805 10.5758V9.09675C89.6793 9.0499 89.6882 9.00335 89.7066 8.96024C89.725 8.91714 89.7524 8.87847 89.787 8.84687C89.8549 8.78529 89.9437 8.75194 90.0353 8.75363H93.1431C93.2345 8.75197 93.3232 8.78532 93.3908 8.84687C93.4254 8.87847 93.4528 8.91714 93.4712 8.96024C93.4896 9.00335 93.4985 9.0499 93.4974 9.09675V10.5763C93.4959 10.5894 93.4973 10.6026 93.5016 10.615C93.5059 10.6274 93.513 10.6387 93.5222 10.6479C93.5315 10.6572 93.5428 10.6643 93.5552 10.6686C93.5676 10.6729 93.5808 10.6743 93.5938 10.6728H95.2908C95.3208 10.6744 95.3504 10.6641 95.3728 10.644C95.3822 10.6356 95.3895 10.6251 95.3943 10.6133C95.399 10.6016 95.4009 10.5889 95.4 10.5763V3.90993C95.4151 3.78129 95.3872 3.65126 95.3206 3.54016L94.2316 2.45165ZM93.4968 7.26604H89.6783V4.04313H93.4968V7.26604Z" fill="white"/>
<path d="M104.144 6.93203L103.057 5.84618C102.979 5.76786 102.797 5.77905 102.687 5.77905H98.9377C98.891 5.7794 98.8446 5.77045 98.8013 5.75272C98.7581 5.73498 98.7188 5.70882 98.6857 5.67575C98.6526 5.64268 98.6264 5.60336 98.6087 5.56008C98.591 5.51681 98.582 5.47044 98.5824 5.42367V4.43479C98.5812 4.38794 98.5902 4.34139 98.6086 4.29828C98.627 4.25518 98.6544 4.21651 98.689 4.1849C98.7567 4.12341 98.8452 4.09006 98.9367 4.09166H103.846C103.874 4.09166 103.901 4.08044 103.921 4.06045C103.941 4.04047 103.952 4.01337 103.952 3.9851V2.48154C103.952 2.45328 103.941 2.42617 103.921 2.40619C103.901 2.38621 103.874 2.37498 103.846 2.37498H98.4486C98.324 2.36017 98.198 2.38796 98.0911 2.45383L96.9973 3.54714C96.9339 3.65313 96.9078 3.77731 96.9233 3.89986V5.74388C96.9233 5.85897 96.918 6.02893 96.9995 6.11098L98.0906 7.20216C98.1679 7.27941 98.3394 7.26876 98.4481 7.26876H102.197C102.244 7.2684 102.291 7.27735 102.334 7.29509C102.377 7.31282 102.416 7.33898 102.449 7.37206C102.483 7.40513 102.509 7.44444 102.526 7.48772C102.544 7.531 102.553 7.57737 102.553 7.62414V8.63646C102.554 8.68331 102.545 8.72987 102.527 8.77298C102.508 8.8161 102.481 8.85476 102.446 8.88634C102.379 8.94793 102.29 8.98129 102.198 8.97958H97.0304C97.0021 8.97958 96.975 8.99081 96.955 9.01079C96.935 9.03078 96.9238 9.05788 96.9238 9.08614V10.5636C96.9238 10.6494 96.9467 10.6702 97.0304 10.6702H102.684C102.791 10.6702 102.974 10.6702 103.049 10.5961L104.143 9.50279C104.209 9.39582 104.236 9.26958 104.221 9.14475V7.30126C104.239 7.17137 104.21 7.03957 104.141 6.9283" fill="white"/>
<path d="M56.4861 10.5497V9.53148C56.499 9.40693 56.4714 9.28154 56.4073 9.17397L54.186 6.75026C54.1519 6.71996 54.1245 6.68276 54.1058 6.64111C54.087 6.59946 54.0773 6.5543 54.0773 6.50863C54.0773 6.46296 54.087 6.4178 54.1058 6.37615C54.1245 6.3345 54.1519 6.2973 54.186 6.26701L56.4073 3.84329C56.4714 3.73576 56.4991 3.61034 56.4861 3.48578V2.4676C56.4861 2.38235 56.4627 2.36104 56.3796 2.36104H55.4871C55.3768 2.36104 55.1925 2.35784 55.1174 2.43989L52.9201 4.8375C52.8896 4.87158 52.8521 4.89884 52.8103 4.9175C52.7685 4.93616 52.7232 4.9458 52.6775 4.9458C52.6317 4.9458 52.5864 4.93616 52.5446 4.9175C52.5028 4.89884 52.4653 4.87158 52.4348 4.8375L50.2375 2.43989C50.1624 2.35784 49.9781 2.36104 49.8678 2.36104H48.9748C48.8896 2.36104 48.8682 2.38448 48.8682 2.4676V3.48578C48.8552 3.61034 48.8829 3.73577 48.9471 3.84329L51.1683 6.26701C51.2026 6.29725 51.23 6.33444 51.2488 6.3761C51.2676 6.41776 51.2773 6.46293 51.2773 6.50863C51.2773 6.55433 51.2676 6.59951 51.2488 6.64116C51.23 6.68282 51.2026 6.72001 51.1683 6.75026L48.9423 9.17397C48.8782 9.28152 48.8505 9.40692 48.8635 9.53148V10.5497C48.8635 10.6349 48.8869 10.6562 48.97 10.6562H49.863C49.9733 10.6562 50.1576 10.6594 50.2327 10.5774L52.43 8.17976C52.4605 8.14568 52.498 8.11843 52.5398 8.09977C52.5816 8.08111 52.6269 8.07146 52.6726 8.07146C52.7184 8.07146 52.7637 8.08111 52.8055 8.09977C52.8473 8.11843 52.8848 8.14568 52.9153 8.17976L55.1126 10.5774C55.1877 10.6594 55.372 10.6562 55.4823 10.6562H56.3748C56.46 10.6562 56.4813 10.6328 56.4813 10.5497" fill="white"/>
<path d="M39.3728 18.7309C39.3105 18.6717 39.3041 18.4917 39.3041 18.4112V17.5411C39.3125 17.3967 39.2891 17.2522 39.2354 17.1178C39.1817 16.9835 39.0991 16.8626 38.9934 16.7638C38.7557 16.5758 38.4575 16.4811 38.1548 16.4974C37.8552 16.4799 37.5585 16.5644 37.313 16.7371C37.2111 16.8243 37.1308 16.9339 37.0783 17.0573C37.0258 17.1807 37.0026 17.3146 37.0104 17.4484V17.5193H37.7302V17.4484C37.7258 17.4017 37.732 17.3545 37.7482 17.3105C37.7645 17.2664 37.7903 17.2265 37.824 17.1938C37.9231 17.1329 38.0388 17.1046 38.1548 17.1128C38.2707 17.1057 38.3849 17.1428 38.4745 17.2167C38.5126 17.2551 38.5421 17.3012 38.561 17.3519C38.5799 17.4026 38.5878 17.4568 38.5843 17.5108V17.7926C38.3808 17.6767 38.149 17.6201 37.9151 17.6291C37.6456 17.6149 37.3795 17.6941 37.1617 17.8534C37.0727 17.9409 37.002 18.0453 36.9537 18.1605C36.9055 18.2757 36.8806 18.3993 36.8806 18.5242C36.8806 18.649 36.9055 18.7727 36.9537 18.8878C37.002 19.003 37.0727 19.1074 37.1617 19.195C37.3765 19.3549 37.6402 19.4351 37.9076 19.4219C38.0588 19.4323 38.2105 19.4109 38.3528 19.3589C38.4952 19.307 38.625 19.2257 38.734 19.1204C38.8426 19.2548 38.9912 19.3512 39.1582 19.3957C39.3252 19.4403 39.502 19.4306 39.6632 19.3681L39.7164 19.3559V18.7336L39.6317 18.7506C39.5609 18.765 39.4261 18.7842 39.368 18.7293M38.4623 18.7016C38.3428 18.7596 38.2107 18.7867 38.0781 18.7804C37.89 18.7804 37.5986 18.7581 37.5986 18.5076C37.5986 18.2572 37.889 18.229 38.0781 18.229C38.2108 18.2226 38.3429 18.2505 38.4617 18.31C38.4983 18.328 38.529 18.3562 38.55 18.3911C38.5711 18.4261 38.5817 18.4663 38.5805 18.5071C38.5815 18.5474 38.5709 18.5871 38.5499 18.6215C38.5289 18.6558 38.4985 18.684 38.4623 18.7016Z" fill="white"/>
<path d="M33.335 16.4947C33.1099 16.6376 32.8488 16.7135 32.5821 16.7135C32.3155 16.7135 32.0544 16.6376 31.8293 16.4947C31.5355 16.4802 31.2468 16.5751 31.0189 16.7611C30.915 16.8615 30.8342 16.9832 30.7819 17.1179C30.7297 17.2525 30.7073 17.397 30.7163 17.5411V19.3729H31.4361V17.5081C31.4322 17.4572 31.4392 17.4061 31.4567 17.3581C31.4741 17.3101 31.5016 17.2665 31.5373 17.23C31.6194 17.1635 31.7233 17.1299 31.8288 17.1357C32.077 17.1357 32.2076 17.2422 32.2166 17.4937V19.3708H32.9418V17.506C32.9379 17.4552 32.9447 17.4041 32.9618 17.3561C32.9789 17.3081 33.0058 17.2642 33.0409 17.2273C33.1236 17.1605 33.2283 17.1271 33.3344 17.1335C33.4389 17.1275 33.5418 17.161 33.6227 17.2273C33.6578 17.2642 33.6849 17.3081 33.7021 17.3561C33.7192 17.4041 33.7261 17.4551 33.7223 17.506V19.3708H34.4421V17.539C34.4511 17.3948 34.4287 17.2504 34.3765 17.1157C34.3242 16.9811 34.2434 16.8593 34.1395 16.759C33.9134 16.5735 33.6265 16.4785 33.3344 16.4926" fill="white"/>
<path d="M62.0435 15.4211H61.3237V16.2294H62.0435V15.4211Z" fill="white"/>
<path d="M62.1529 18.7234C62.057 18.6659 62.0463 18.5103 62.0463 18.4112V16.5464H60.7144V17.1857H61.3239V18.376C61.3104 18.5318 61.3294 18.6888 61.3797 18.8369C61.4299 18.985 61.5103 19.121 61.6158 19.2365C61.7702 19.3285 61.942 19.3876 62.1203 19.4103C62.2985 19.4329 62.4796 19.4186 62.6521 19.3681L62.7107 19.358V18.7389L62.6313 18.749C62.4717 18.7811 62.3064 18.7709 62.1518 18.7197" fill="white"/>
<path d="M43.0038 16.7078C42.8639 16.8094 42.752 16.9446 42.6784 17.101C42.6048 17.2574 42.572 17.4299 42.5829 17.6024V18.7303H41.968V19.3697H44.0688V18.7303H43.3027V17.6024C43.2988 17.5246 43.3184 17.4474 43.359 17.3809C43.3996 17.3144 43.4592 17.2616 43.5302 17.2294C43.7384 17.1429 43.9694 17.1278 44.1871 17.1863L44.2718 17.2033V16.5336L44.2105 16.5256C43.7996 16.4382 43.3709 16.5025 43.0038 16.7068" fill="white"/>
<path d="M67.1765 16.7803C66.9283 16.5821 66.6163 16.4815 66.299 16.4974C65.9795 16.4814 65.6651 16.5819 65.4141 16.7803C65.3012 16.8847 65.2129 17.0128 65.1555 17.1554C65.0981 17.298 65.073 17.4516 65.0821 17.6051V19.3745H65.8089V17.5688C65.8045 17.5095 65.8136 17.4499 65.8355 17.3946C65.8573 17.3392 65.8914 17.2895 65.9351 17.2492C66.0433 17.1776 66.1701 17.1394 66.2998 17.1394C66.4295 17.1394 66.5564 17.1776 66.6645 17.2492C66.7075 17.2899 66.741 17.3398 66.7623 17.3951C66.7837 17.4504 66.7925 17.5097 66.7881 17.5688V19.3745H67.5079V17.6051C67.517 17.4519 67.4921 17.2987 67.4352 17.1562C67.3783 17.0138 67.2907 16.8856 67.1787 16.7808" fill="white"/>
<path d="M72.3356 19.0084C72.1635 18.8652 71.9439 18.7918 71.7202 18.8027H71.1469C71.1032 18.8027 71.067 18.7948 71.0532 18.7495C71.0481 18.7298 71.0479 18.7091 71.0524 18.6893C71.0569 18.6695 71.0662 18.651 71.0793 18.6355C71.1171 18.6355 71.1554 18.6355 71.1938 18.6355C71.5106 18.6517 71.8233 18.5588 72.0798 18.3722C72.1928 18.2728 72.2813 18.1487 72.3387 18.0096C72.396 17.8704 72.4207 17.72 72.4107 17.5698V17.5645C72.4117 17.4211 72.3881 17.2785 72.3409 17.1431L72.5253 17.0898V16.5431H71.6488C71.5014 16.5083 71.3506 16.4904 71.1991 16.4899C70.8825 16.4732 70.5699 16.5674 70.3152 16.7563C70.2032 16.8569 70.1155 16.9816 70.0588 17.1211C70.002 17.2605 69.9777 17.4111 69.9876 17.5613V17.5667C69.971 17.7586 70.013 17.9511 70.1081 18.1186C70.2033 18.2861 70.347 18.4208 70.5204 18.5049C70.4479 18.5963 70.4019 18.7057 70.3872 18.8214C70.3772 18.8965 70.3851 18.9728 70.4103 19.0442C70.4355 19.1156 70.4772 19.18 70.5321 19.2322C70.6005 19.2926 70.6803 19.3388 70.7667 19.3682C70.8531 19.3977 70.9445 19.4097 71.0356 19.4038H71.6216C71.6798 19.401 71.7374 19.4171 71.7857 19.4496C71.8041 19.4641 71.8186 19.4829 71.8279 19.5044C71.8371 19.5259 71.841 19.5493 71.839 19.5727C71.839 19.8129 71.3915 19.8199 71.2274 19.8199C71.0718 19.829 70.9161 19.8047 70.7708 19.7485C70.7373 19.7212 70.7129 19.6843 70.7008 19.6429C70.6887 19.6014 70.6895 19.5572 70.7031 19.5162L70.7164 19.4341H70.0238L70.0121 19.4906C69.974 19.6196 69.9738 19.7568 70.0116 19.8858C70.0494 20.0149 70.1236 20.1303 70.2252 20.2184C70.5302 20.3791 70.87 20.4625 71.2147 20.4612C71.5594 20.4599 71.8986 20.374 72.2024 20.2109C72.3147 20.1379 72.4068 20.0378 72.4703 19.9198C72.5338 19.8019 72.5666 19.6698 72.5657 19.5359C72.5684 19.4355 72.549 19.3358 72.509 19.2438C72.4689 19.1517 72.4092 19.0696 72.334 19.0031M70.8294 17.8815C70.7864 17.8415 70.753 17.7923 70.7316 17.7376C70.7102 17.6829 70.7014 17.6241 70.7058 17.5656V17.5603C70.7014 17.5009 70.7105 17.4413 70.7324 17.386C70.7542 17.3307 70.7883 17.2809 70.832 17.2406C70.9402 17.169 71.067 17.1309 71.1967 17.1309C71.3264 17.1309 71.4532 17.169 71.5614 17.2406C71.6043 17.2815 71.6376 17.3313 71.6589 17.3866C71.6801 17.4419 71.6889 17.5012 71.6845 17.5603V17.5656C71.6889 17.6241 71.6801 17.6829 71.6588 17.7375C71.6375 17.7922 71.6042 17.8414 71.5614 17.8815C71.4547 17.9588 71.3243 17.9965 71.1927 17.9881C71.0629 17.9961 70.9343 17.9584 70.8294 17.8815Z" fill="white"/>
<path d="M57.6328 15.7546H56.913V16.5469H56.2358V17.1863H56.913V18.3243C56.9118 18.4426 56.9192 18.5609 56.9349 18.6781C56.9494 18.7803 56.9773 18.8801 57.018 18.9749C57.055 19.0663 57.1139 19.1471 57.1896 19.2104C57.3727 19.3527 57.6016 19.4232 57.8331 19.4086C57.9962 19.4027 58.1587 19.3878 58.3201 19.3692L58.383 19.3617V18.7405L58.3047 18.7485C58.1188 18.7812 57.9279 18.7695 57.7474 18.7143C57.6446 18.6515 57.6323 18.4629 57.6323 18.3552V17.1857H58.3787V16.5464H57.6328V15.7546Z" fill="white"/>
<path d="M53.1907 18.4373C53.1561 18.7085 52.9552 18.782 52.7085 18.782C52.5755 18.7909 52.444 18.75 52.3393 18.6675C52.2971 18.6261 52.2642 18.5762 52.243 18.521C52.2218 18.4659 52.2126 18.4068 52.2162 18.3478V18.2103H53.9148V17.603C53.9238 17.4498 53.899 17.2966 53.8421 17.1541C53.7852 17.0116 53.6976 16.8835 53.5855 16.7787C53.3373 16.5805 53.0252 16.4799 52.708 16.4958C52.3885 16.4798 52.074 16.5803 51.823 16.7787C51.7101 16.8831 51.6218 17.0112 51.5644 17.1538C51.507 17.2964 51.482 17.45 51.4911 17.6035V18.3121C51.4827 18.4654 51.508 18.6186 51.5652 18.761C51.6225 18.9035 51.7103 19.0316 51.8225 19.1364C52.0721 19.3381 52.3874 19.4407 52.708 19.4246C53.0087 19.4384 53.3055 19.3516 53.5514 19.1779C53.6603 19.0902 53.7492 18.9801 53.8119 18.8551C53.8746 18.7301 53.9096 18.5931 53.9148 18.4533L53.9212 18.3766H53.1987L53.1907 18.4373ZM52.2167 17.5657C52.2124 17.5063 52.2215 17.4467 52.2433 17.3914C52.2652 17.336 52.2993 17.2863 52.343 17.246C52.4512 17.1744 52.578 17.1363 52.7077 17.1363C52.8374 17.1363 52.9642 17.1744 53.0724 17.246C53.1154 17.2868 53.1489 17.3366 53.1702 17.3919C53.1916 17.4472 53.2004 17.5065 53.196 17.5657V17.6253H52.2189L52.2167 17.5657Z" fill="white"/>
<path d="M48.39 17.7116L48.999 16.5464H48.1998L47.6734 17.6248H47.407V15.7541H46.6873V19.3707H47.407V18.2662H47.8519C47.9818 18.2582 48.1104 18.2959 48.2153 18.3728C48.2583 18.4136 48.2917 18.4635 48.3131 18.5187C48.3344 18.574 48.3433 18.6334 48.3389 18.6925V19.3675H49.0587V18.7282C49.0789 18.5077 49.0239 18.287 48.9028 18.1017C48.7818 17.9164 48.6016 17.7774 48.3916 17.7073" fill="white"/>
<path fill-rule="evenodd" clip-rule="evenodd" d="M3.43331 3.66964V0.423816C3.43345 0.399047 3.43847 0.374548 3.44807 0.351718C3.45768 0.328888 3.47169 0.308174 3.4893 0.290759C3.50692 0.273343 3.52779 0.259568 3.55072 0.250219C3.57366 0.24087 3.59821 0.23613 3.62298 0.23627H21.1236C21.1733 0.23641 21.221 0.256197 21.2562 0.291323C21.2915 0.32645 21.3114 0.37407 21.3117 0.423816V21.3597C21.3115 21.4095 21.2917 21.4573 21.2564 21.4925C21.2212 21.5278 21.1734 21.5476 21.1236 21.5478H0.188075C0.138238 21.5476 0.0904819 21.5278 0.0552413 21.4925C0.0200008 21.4573 0.000140586 21.4095 0 21.3597L0 3.85932C0.000140586 3.80948 0.0200008 3.76172 0.0552413 3.72648C0.0904819 3.69124 0.138238 3.67138 0.188075 3.67124L3.43331 3.66964ZM16.1851 9.16922V5.36235H5.12652V16.4212H16.1851V12.6132L14.5958 11.0244C14.5606 10.9891 14.5408 10.9412 14.5408 10.8912C14.5408 10.8413 14.5606 10.7934 14.5958 10.758L16.1851 9.16922ZM3.43331 5.36235H1.69268V19.8545H19.6185V1.92898H5.12652V3.66964H17.6887C17.7385 3.66978 17.7863 3.68964 17.8215 3.72488C17.8568 3.76012 17.8766 3.80788 17.8768 3.85772V9.79259C17.8774 9.81725 17.873 9.84179 17.8639 9.86469C17.8547 9.8876 17.841 9.90839 17.8235 9.92579L16.857 10.8923L17.8229 11.8583C17.8404 11.8757 17.8541 11.8965 17.8633 11.9194C17.8724 11.9423 17.8768 11.9668 17.8762 11.9915V17.9253C17.8761 17.9751 17.8562 18.0229 17.821 18.0581C17.7857 18.0933 17.738 18.1132 17.6881 18.1134H3.62298C3.57315 18.1132 3.52539 18.0933 3.49015 18.0581C3.45491 18.0229 3.43505 17.9751 3.43491 17.9253L3.43331 5.36235Z" fill="white"/>
</g>
</svg>
