<svg width="93" height="24" viewBox="0 0 93 24" fill="none" xmlns="http://www.w3.org/2000/svg">
<path d="M1.80256 0.804312C1.50216 0.940889 1.01058 1.32331 0.710175 1.65109C0.19129 2.22472 0.16398 2.68908 0.0820513 12.6046L0.00012207 22.9572H2.89495H5.76248V14.2162V5.47526H8.52076C11.4156 5.47526 12.3168 5.7211 12.3168 6.54056C12.3168 7.38734 10.7875 9.19016 8.65731 10.8564C7.5103 11.7305 6.58177 12.6046 6.58177 12.7958C6.58177 13.2875 9.96818 20.0344 10.924 21.4548C12.0164 23.0664 12.5899 23.2576 16.386 23.1757L19.6904 23.0937L18.1065 20.9631C17.2053 19.7886 15.8125 17.7126 14.9659 16.3195L13.4365 13.8065L14.1739 13.2602C17.3691 10.8291 18.8712 8.58922 19.0623 5.91231C19.1716 4.4919 19.1169 4.10949 18.5434 3.29002C17.6968 2.03351 16.4133 1.21404 14.7474 0.858944C13.1634 0.503841 2.62186 0.476526 1.80256 0.804312Z" fill="white"/>
<path d="M23.2406 3.72716C20.81 4.57394 20.7827 4.6832 20.7827 14.7626V23.2304H27.7467C31.5701 23.2304 34.7107 23.1485 34.7107 23.0392C34.7107 22.9299 34.4649 21.8919 34.1372 20.7174L33.5637 18.5868H29.7676H25.9716V16.9478V15.3089H29.358H32.7444L32.1436 13.1237L31.5701 10.9384H28.7572H25.9443L26.0262 9.49072L26.1081 8.07032L28.3748 7.98837C30.9419 7.90643 30.86 8.01569 30.1226 5.33877L29.6584 3.69984L26.6543 3.64521C24.9884 3.6179 23.4591 3.67253 23.2406 3.72716Z" fill="white"/>
<path d="M31.1604 3.75438C31.1604 3.86365 32.2801 8.31607 33.6729 13.6153L36.1854 23.2576L39.326 23.1757L42.4939 23.0937L45.2795 13.6699C46.8362 8.47996 48.0924 4.08217 48.0924 3.89096C48.0924 3.4266 44.788 3.45391 43.5863 3.94559C43.0948 4.16411 42.5486 4.57385 42.3847 4.87432C42.2208 5.14747 41.5381 7.68781 40.828 10.5013C40.118 13.3148 39.4899 15.5274 39.4079 15.4454C39.326 15.3635 38.6979 12.6865 38.0151 9.51795L36.7589 3.69975L33.946 3.61781C32.4166 3.59049 31.1604 3.64512 31.1604 3.75438Z" fill="white"/>
<path d="M51.1782 3.86374C50.7139 4.00031 50.0585 4.43736 49.7581 4.81978C49.2119 5.52998 49.1846 5.88508 49.1846 14.3802V23.2304H56.1212H63.0579L62.4844 20.9905L61.8836 18.7234L58.1422 18.6414L54.3734 18.5595V16.9478V15.3089H57.6779H60.9824L60.7912 14.5441C60.7093 14.1344 60.4362 13.151 60.2177 12.3588L59.8081 10.9384H57.0771H54.3461L54.428 9.49072L54.51 8.07032L56.7767 7.98837C58.0056 7.93374 59.0161 7.82448 59.0161 7.6879C59.0161 7.57864 58.9068 7.11428 58.743 6.67723C58.6064 6.24018 58.3606 5.36609 58.1968 4.71052L57.8964 3.56327L54.9742 3.59058C53.363 3.59058 51.6698 3.72716 51.1782 3.86374Z" fill="white"/>
<path d="M66.5812 3.83642C64.3691 4.24615 62.9763 6.07629 63.2494 8.2069C63.4679 10.0097 64.2325 11.2389 67.1547 14.5441C70.2134 18.0132 70.4045 18.2863 69.913 18.6141C69.6945 18.7507 68.0832 18.8599 66.2808 18.8599H63.0582L63.2221 19.5974C63.3313 20.0345 63.6044 21.0179 63.8229 21.7827L64.2325 23.2304H68.329C71.852 23.2304 72.562 23.1485 73.4632 22.6841C74.8014 22.0285 75.9484 20.6628 76.003 19.734C76.1396 17.3029 75.8938 16.8386 72.6439 13.1237C68.5202 8.37079 68.4929 8.2069 71.852 8.2069H74.0367V5.88508V3.56327L70.8415 3.59058C69.0664 3.6179 67.1547 3.72716 66.5812 3.83642Z" fill="white"/>
<path d="M75.9484 5.9124V8.28884L78.5428 8.12495L81.1372 7.98837V15.6094V23.2304H83.8682H86.5992L86.6538 15.6367L86.7357 8.07032L89.3848 7.98837L92.0065 7.90643L91.7334 6.89575C90.8595 3.67253 90.5318 3.56327 82.3662 3.56327H75.9484V5.9124Z" fill="white"/>
</svg>
