<svg width="93" height="32" viewBox="0 0 93 32" fill="none" xmlns="http://www.w3.org/2000/svg">
<mask id="mask0_974_17" style="mask-type:luminance" maskUnits="userSpaceOnUse" x="0" y="0" width="93" height="32">
<path d="M92.0064 0.26239H0V31.5087H92.0064V0.26239Z" fill="white"/>
</mask>
<g mask="url(#mask0_974_17)">
<path d="M72.062 24.4347C71.7159 24.1414 71.1883 23.9933 70.4778 23.9933C70.153 23.9933 69.7743 24.0178 69.3445 24.0681C69.0438 24.1026 68.7219 24.1745 68.6084 24.2018C68.4751 24.2349 68.3531 24.4433 68.329 24.6877C68.3021 24.9551 68.3446 25.1923 68.4822 25.1908C68.502 25.1908 68.5347 25.1822 68.5403 25.1808C69.0878 25.0212 69.7232 24.9249 70.2352 24.9249C70.6536 24.9249 70.9515 24.9953 71.1274 25.1348C71.3032 25.2742 71.3897 25.4884 71.3897 25.7759V26.5263C70.8933 26.3365 70.431 26.2431 70.004 26.2431C69.3856 26.2431 68.9077 26.3753 68.5687 26.6413C68.2283 26.9072 68.0581 27.2853 68.0581 27.7784V27.961C68.0581 28.26 68.1205 28.5173 68.2439 28.7315C68.3673 28.9457 68.5403 29.1124 68.7658 29.2289C68.9899 29.3453 69.2353 29.4316 69.5034 29.4862C69.7714 29.5394 70.0707 29.5667 70.404 29.5667C70.7813 29.5667 71.1685 29.5351 71.5642 29.4732C71.7472 29.4445 72.0932 29.3697 72.1032 29.3669C72.3854 29.3007 72.5811 29.0564 72.5783 28.8091V25.7816C72.5811 25.175 72.4081 24.7279 72.062 24.4347ZM71.3926 28.7228C71.0593 28.8105 70.7614 28.8537 70.4948 28.8537C69.7019 28.8537 69.3062 28.5547 69.3062 27.9552V27.9035C69.3062 27.6332 69.397 27.4276 69.5785 27.2796C69.7601 27.1344 70.0267 27.0611 70.3771 27.0611C70.8338 27.0611 71.1727 27.1315 71.394 27.2709V28.7214H71.3926V28.7228Z" fill="white"/>
<path d="M91.4872 24.4347C91.1412 24.1414 90.6136 23.9933 89.903 23.9933C89.5782 23.9933 89.1995 24.0178 88.7697 24.0681C88.4691 24.1026 88.1471 24.1745 88.0336 24.2018C87.9003 24.2349 87.7798 24.4433 87.7556 24.6877C87.7287 24.9551 87.7712 25.1923 87.9088 25.1908C87.9287 25.1908 87.9627 25.1822 87.9684 25.1808C88.5159 25.0212 89.1513 24.9249 89.6619 24.9249C90.0817 24.9249 90.3781 24.9953 90.554 25.1348C90.7299 25.2742 90.8164 25.4884 90.8164 25.7759V26.5263C90.32 26.3365 89.8576 26.2431 89.4307 26.2431C88.8123 26.2431 88.3343 26.3753 87.9953 26.6413C87.6549 26.9072 87.4847 27.2853 87.4847 27.7784V27.961C87.4847 28.26 87.5471 28.5173 87.6705 28.7315C87.7939 28.9457 87.967 29.1124 88.1925 29.2289C88.4166 29.3453 88.6619 29.4316 88.93 29.4862C89.1981 29.5394 89.4973 29.5667 89.8306 29.5667C90.2079 29.5667 90.5951 29.5351 90.9923 29.4732C91.1752 29.4445 91.5213 29.3697 91.5312 29.3669C91.812 29.3007 92.0092 29.0564 92.0063 28.8091V25.7816C92.0063 25.175 91.8333 24.7279 91.4872 24.4347ZM90.8178 28.7228C90.4845 28.8105 90.1852 28.8537 89.92 28.8537C89.1272 28.8537 88.7314 28.5547 88.7314 27.9552V27.9035C88.7314 27.6332 88.8208 27.4276 89.0038 27.2796C89.1853 27.1344 89.452 27.0611 89.8023 27.0611C90.259 27.0611 90.598 27.1315 90.8178 27.2709V28.7228Z" fill="white"/>
<path d="M86.2155 29.2936V26.0246C86.2155 25.3763 86.0452 24.8688 85.7034 24.508C85.3616 24.1457 84.8368 23.9646 84.1305 23.9646C83.5674 23.9646 82.9859 24.0882 82.3832 24.3384C82.0342 24.0882 81.5435 23.9646 80.9109 23.9646C80.5195 23.9646 80.1082 24.0192 79.6798 24.1285C79.3253 24.219 79.0884 24.2938 78.8402 24.4189C78.5622 24.5569 78.5778 24.8487 78.5778 24.8487V29.2734C78.5778 29.2734 78.5778 29.3022 78.5778 29.3209C78.5778 29.4603 78.8416 29.5753 79.1707 29.5753C79.4969 29.5753 79.7635 29.4632 79.7635 29.3209C79.7635 29.3108 79.7635 29.2777 79.7635 29.2777V25.1966C79.8784 25.1362 80.0415 25.0816 80.2486 25.0313C80.4571 24.9795 80.6429 24.9536 80.806 24.9536C81.145 24.9536 81.396 25.0255 81.5577 25.1678C81.7194 25.3116 81.8002 25.5114 81.8002 25.7687V29.2389C81.8002 29.2389 81.8002 29.2907 81.8002 29.3209C81.8002 29.4603 82.0654 29.5753 82.3931 29.5753C82.7207 29.5753 82.9859 29.4632 82.9859 29.3209C82.9859 29.2993 82.9859 29.2504 82.9859 29.2504V25.2886C83.1051 25.2052 83.2682 25.129 83.4753 25.06C83.6823 24.9896 83.8667 24.9551 84.0256 24.9551C84.3645 24.9551 84.6184 25.0586 84.7844 25.2656C84.9503 25.4726 85.0326 25.7615 85.0326 26.131V29.2533C85.0326 29.2533 85.0326 29.2921 85.0326 29.3209C85.0326 29.4603 85.2978 29.5753 85.6254 29.5753C85.9516 29.5753 86.2183 29.4632 86.2183 29.3209C86.2154 29.3094 86.2155 29.2936 86.2155 29.2936Z" fill="white"/>
<path d="M64.6952 24.1055C64.2286 24.1055 63.7875 24.2205 63.3776 24.4505C63.3776 24.4505 63.3776 22.5443 63.3776 22.402C63.3776 22.2611 63.0684 22.126 62.7081 22.126C62.3493 22.126 62.0387 22.2424 62.0387 22.3991C62.0387 22.5529 62.0387 29.2792 62.0387 29.2792C62.0387 29.4373 62.338 29.5652 62.7081 29.5652C63.0783 29.5652 63.3776 29.4387 63.3776 29.2806C63.3776 29.2792 63.3776 25.2914 63.3776 25.2914C63.7066 25.1189 64.0357 25.0384 64.3435 25.0384C64.8541 25.0384 65.1037 25.3144 65.1037 25.8564V29.2763C65.1037 29.2777 65.1037 29.282 65.1037 29.2835C65.1037 29.4416 65.4015 29.5667 65.7717 29.5667C66.1419 29.5667 66.4412 29.4387 66.4412 29.2806V25.947C66.4412 25.3949 66.2937 24.9464 66.0086 24.6115C65.7235 24.2765 65.2852 24.1055 64.6952 24.1055Z" fill="white"/>
<path d="M77.5523 24.6173C77.5523 24.3154 77.4842 24.0797 77.3097 24.0639C77.1353 24.0481 76.9793 24.0337 76.7921 24.0337C76.2843 24.0337 75.6957 24.2292 75.429 24.5857L75.4276 24.3068C75.4276 24.2134 75.3766 24.1286 75.2305 24.1286C75.2291 24.1286 74.8532 24.1286 74.8532 24.1286C74.8504 24.1286 74.8461 24.1286 74.8433 24.1286C74.5227 24.1286 74.2618 24.3715 74.2561 24.6705V29.101C74.2561 29.1053 74.2561 29.3396 74.2561 29.3569C74.2561 29.5308 74.5894 29.5998 74.8433 29.5998C75.0518 29.5998 75.4305 29.5452 75.4305 29.3612C75.4305 29.331 75.4305 29.1901 75.4305 29.1901V28.1192V25.8177C75.5595 25.5589 75.8787 25.2556 76.2786 25.1348C76.6077 25.0371 77.0048 25.0414 77.2445 25.1147C77.4204 25.165 77.5523 24.9322 77.5523 24.6173Z" fill="white"/>
<path d="M60.3071 25.6121C60.2149 25.3218 60.0872 25.0803 59.9269 24.8905C59.7667 24.6993 59.571 24.5426 59.3384 24.419C59.1072 24.2954 58.8618 24.2062 58.5994 24.1516C58.3384 24.0984 58.0548 24.0711 57.7498 24.0711C57.4137 24.0711 57.0619 24.1027 56.6932 24.1631C56.5045 24.1947 56.1684 24.2738 56.1684 24.2738C55.9202 24.3428 55.75 24.5354 55.75 24.7741V31.2732C55.75 31.4299 56.0464 31.5089 56.3315 31.5089C56.6435 31.5089 56.9116 31.4155 56.9116 31.2732C56.9116 31.1625 56.9116 31.0302 56.9116 31.0274V29.3497C57.3825 29.4561 57.8122 29.5108 58.1994 29.5108C58.9355 29.5108 59.4944 29.2678 59.8745 28.7862C60.256 28.3032 60.4461 27.6175 60.4461 26.7291V26.6012C60.4475 26.2332 60.4007 25.9025 60.3071 25.6121ZM59.2362 26.7291C59.2362 27.9827 58.7767 28.6094 57.8534 28.6094C57.5059 28.6094 57.1938 28.5591 56.9144 28.4599V28.4542H56.913V25.1104C57.1868 25.0256 57.4633 24.9825 57.7399 24.9825C57.9683 24.9825 58.1725 25.017 58.3526 25.0831C58.5342 25.1507 58.693 25.2499 58.8292 25.3836C59.0987 25.651 59.2348 26.0621 59.2348 26.6184L59.2362 26.7291Z" fill="white"/>
<path d="M60.646 9.9614C60.2999 9.55026 59.8787 9.21244 59.3808 8.94506C58.883 8.67768 58.3526 8.48648 57.7923 8.37148C57.2307 8.25648 56.6208 8.19897 55.9613 8.19897C55.2379 8.19897 54.4777 8.2651 53.6849 8.39592C53.2792 8.46348 52.5573 8.63455 52.5573 8.63455C52.0226 8.78262 51.6581 9.19663 51.6581 9.71127V23.7057C51.6581 24.0421 52.2977 24.2132 52.909 24.2132C53.5827 24.2132 54.1586 24.0119 54.1586 23.7057C54.1586 23.4656 54.1586 23.1824 54.1586 23.1767V19.567C55.1727 19.7985 56.096 19.9135 56.9286 19.9135C58.5128 19.9135 59.717 19.3931 60.5353 18.3537C61.3551 17.3144 61.765 15.8381 61.765 13.9247V13.6501C61.765 12.8523 61.6657 12.1421 61.4658 11.5168C61.2615 10.89 60.9906 10.3711 60.646 9.9614ZM59.144 13.9118C59.144 16.6057 58.154 17.9541 56.1726 17.9541C55.4251 17.9541 54.7529 17.8463 54.1557 17.6321V10.4343C54.7458 10.2518 55.3386 10.1598 55.9357 10.1598C56.9101 10.1598 57.6888 10.4458 58.2717 11.0209C58.8532 11.5944 59.144 12.4785 59.144 13.6746V13.9118Z" fill="white"/>
<path d="M81.9165 9.37938C81.9165 8.73968 81.7704 8.24229 81.4002 8.20635C81.03 8.17041 80.6995 8.14166 80.3052 8.14166C79.2302 8.14166 77.9849 8.55423 77.4218 9.31038L77.4204 8.71811C77.4204 8.52261 77.3126 8.34148 77.002 8.34148C76.9977 8.34148 76.2035 8.34148 76.2035 8.34148V8.34292C76.1964 8.34292 76.1893 8.34148 76.1822 8.34148C75.5028 8.34148 74.9525 8.85324 74.9426 9.48864H74.9412V18.8614C74.9412 18.8715 74.9412 19.3645 74.9412 19.4033C74.9412 19.7699 75.6446 19.9151 76.1822 19.9151C76.6247 19.9151 77.4218 19.8015 77.4218 19.412C77.4218 19.3487 77.4218 19.0483 77.4218 19.0483V16.7798V11.9123C77.6941 11.3661 78.3692 10.7235 79.2188 10.4662C79.9152 10.2563 80.7549 10.2707 81.2626 10.423C81.6371 10.538 81.9165 10.0435 81.9165 9.37938Z" fill="white"/>
<path d="M37.4835 4.26172C36.7063 4.26172 36.1886 4.49029 36.1857 4.80367C36.1857 4.80367 36.1857 5.03368 36.1857 5.03655V10.8068H30.0444V5.30106L30.043 4.80511C30.043 4.45291 29.4317 4.26316 28.7452 4.26316C28.1098 4.26316 27.446 4.43422 27.446 4.80511V5.66763V19.4004C27.446 19.7699 28.1283 19.9366 28.7452 19.9366C29.3764 19.9366 30.0444 19.7713 30.0444 19.3976V12.8798H36.1857V19.3947C36.1857 19.7512 36.8211 19.9352 37.4849 19.9352C38.1771 19.9352 38.7841 19.7469 38.7841 19.3961V4.80367C38.7827 4.46729 38.2125 4.26172 37.4835 4.26172Z" fill="white"/>
<path d="M90.9099 9.08182C90.1795 8.46224 89.0632 8.15173 87.5641 8.15173C86.8762 8.15173 86.0791 8.20348 85.17 8.30842C84.5331 8.38174 83.8552 8.53412 83.6169 8.59162C83.3347 8.66062 83.0794 9.10051 83.0283 9.61802C82.9716 10.1815 83.0609 10.6832 83.3517 10.6818C83.3928 10.6818 83.4651 10.6631 83.4765 10.6602C84.631 10.3224 85.9756 10.1197 87.0535 10.1197C87.9371 10.1197 88.5654 10.2664 88.937 10.5639C89.3086 10.8601 89.4944 11.3129 89.4944 11.921V13.5051C88.4449 13.1041 87.4691 12.9042 86.5684 12.9042C85.265 12.9042 84.2551 13.1846 83.5361 13.7452C82.817 14.3044 82.4581 15.1065 82.4581 16.1473V16.5311C82.4581 17.1651 82.5886 17.7071 82.8496 18.1584C83.112 18.6113 83.4779 18.962 83.9516 19.2093C84.4253 19.458 84.9444 19.6391 85.5104 19.7498C86.0763 19.8605 86.7088 19.918 87.4123 19.918C88.2094 19.918 89.0264 19.8519 89.8632 19.7196C90.249 19.6578 90.9822 19.4997 91.0035 19.4939C91.5978 19.3559 92.0148 18.837 92.0091 18.3151V11.9195C92.0063 10.6487 91.6403 9.70284 90.9099 9.08182ZM89.4944 18.1412C88.7909 18.3252 88.1584 18.4172 87.5981 18.4172C85.9245 18.4172 85.0863 17.7832 85.0863 16.5182V16.4118C85.0863 15.8426 85.2778 15.4056 85.6621 15.0965C86.0451 14.7888 86.6081 14.635 87.3499 14.635C88.313 14.635 89.0292 14.7831 89.4944 15.0792V18.1412Z" fill="white"/>
<path d="M48.9803 8.16888C48.3874 8.16888 47.7492 8.35864 47.7279 8.75252C47.7222 8.84453 47.7109 9.0731 47.7109 9.0731C47.5322 12.539 46.8315 15.3393 45.548 17.5704C45.548 17.5704 44.5495 16.0006 43.6758 12.8553C43.168 11.0224 43.0219 8.74534 43.0219 8.7439C43.0219 8.26376 42.3397 8.16888 41.7369 8.16888C41.2235 8.16888 40.4278 8.34714 40.4406 8.75109C40.4562 9.24272 40.7044 10.9548 40.9512 12.0143C41.2051 13.0953 41.4518 14.0326 41.727 14.8204C42.0007 15.6081 42.3057 16.3571 42.6418 17.0672C42.9765 17.7788 43.2645 18.3366 43.5027 18.7405C43.7424 19.1445 43.9651 19.4881 44.1736 19.7727C43.5722 20.6668 42.3525 22.1834 41.3001 23.4183C41.3001 23.4183 41.2121 23.5132 41.2178 23.6239C41.2363 23.9502 41.839 24.2176 42.6035 24.2176C43.2347 24.2176 43.7524 24.0106 44.0616 23.6253C44.8289 22.6334 45.2941 22.0196 45.6969 21.4704C46.1493 20.8537 46.7209 19.9898 47.4074 18.8785C48.0953 17.7673 48.6044 16.7841 48.9363 15.9258C49.2682 15.0676 49.5646 14.0427 49.827 12.8538C50.0894 11.665 50.2199 10.4474 50.2199 9.20679C50.2199 9.20679 50.2199 9.18666 50.2199 8.76403C50.2213 8.33851 49.6653 8.16888 48.9803 8.16888Z" fill="white"/>
<path d="M72.0563 9.5634C71.1869 8.62181 69.9175 8.15173 68.2453 8.15173C66.5731 8.15173 65.3193 8.63475 64.4811 9.59934C63.6428 10.5654 63.223 11.9813 63.223 13.8473V14.2066C63.223 16.202 63.718 17.6539 64.7108 18.5624C65.7008 19.4724 67.1957 19.9266 69.1942 19.9266C69.5246 19.9266 69.8551 19.9166 70.1856 19.8892C70.4777 19.8662 70.7713 19.8303 71.0607 19.7771C71.3188 19.7282 71.5727 19.6679 71.8223 19.583C72.0464 19.5083 72.2648 19.4177 72.4719 19.3056C72.5698 19.2524 72.6648 19.1963 72.7556 19.1331C72.9187 19.0224 73.0591 18.8973 73.1541 18.7191C73.2463 18.5437 73.2945 18.3453 73.3257 18.1513C73.408 17.6194 73.3002 17.1608 73.0775 17.1263C73.0364 17.1191 72.9995 17.1205 72.947 17.1464C71.9074 17.6999 70.9032 17.9558 69.5388 17.9558C68.2637 17.9558 67.3461 17.7243 66.7873 17.2643C66.2284 16.8043 65.9178 15.9849 65.854 14.8061H72.7215C73.0662 14.8061 73.3598 14.5287 73.3598 14.1779V13.8933C73.3612 11.9483 72.9258 10.505 72.0563 9.5634ZM65.8327 13.0782C65.8966 12.0805 66.1334 11.3402 66.5462 10.8529C66.9589 10.367 67.5716 10.1226 68.3885 10.1226C69.9813 10.1226 70.8011 11.1087 70.8479 13.0782H65.8327Z" fill="white"/>
<path d="M20.2934 10.0722C19.7885 10.0722 19.2793 10.2763 18.8694 10.6529C18.4851 11.0066 18.2127 11.4651 18.0113 11.9525C18.9318 12.6683 19.719 13.5654 20.2197 14.6277C20.3757 14.9583 20.5076 15.3005 20.6154 15.6512C20.6849 15.8812 20.743 16.1141 20.7884 16.3513C21.3245 15.7835 21.7883 15.1438 22.1074 14.4308C22.6549 13.2045 22.5897 11.6261 21.6096 10.6314C21.2323 10.2504 20.7657 10.0722 20.2934 10.0722ZM12.3863 0.26239C11.5665 0.26239 10.7609 0.442081 10.1312 0.956719C8.53838 2.25769 8.79935 4.77482 8.04338 6.53006C7.52144 7.74047 6.73569 8.81862 5.68614 9.6107C5.39822 9.82777 5.10321 10.0377 4.79827 10.2288C4.51319 10.4071 4.21676 10.571 3.90898 10.7075C3.60972 10.8398 3.29769 10.9476 2.97998 11.0209C2.6481 11.0986 2.30912 11.1374 1.97014 11.146C1.93326 11.1474 1.89639 11.1474 1.86093 11.1474C1.57443 11.1474 1.28793 11.123 1.00426 11.0842C0.910654 11.0712 0.815627 11.0569 0.7206 11.0569C0.687978 11.0569 0.653939 11.0583 0.622736 11.0626C0.414243 11.0899 0.210004 11.1963 0.106467 11.3861C0.071009 11.4493 0.0483168 11.5183 0.0398069 11.5902C0.0341336 11.6333 0.0327148 11.6506 0.0327148 11.6506C0.18022 12.9099 0.963132 13.9966 2.01127 14.6852C2.41124 13.5136 3.38137 12.6626 4.40256 12.0229C5.63366 11.2423 6.99241 10.6716 8.4008 10.3194C9.4844 10.0477 10.6034 9.89821 11.714 9.89821C12.1281 9.89821 12.5409 9.91978 12.9508 9.9629C13.4089 9.39939 13.8982 8.86031 14.4471 8.38736C14.6216 8.23785 14.8017 8.0941 14.9889 7.95897C15.8498 7.33939 16.9036 6.85063 17.9759 6.84919C17.9773 6.84919 17.9801 6.84919 17.9816 6.84919C19.0864 6.84919 20.1587 7.19708 21.038 7.87847C22.0762 8.68349 22.7769 9.89246 23.0194 11.1891C23.3995 13.229 22.8223 15.4744 21.5515 17.0974C21.3472 17.3576 21.126 17.602 20.9033 17.8435C20.8877 18.1856 20.8409 18.5263 20.7643 18.8584C20.6806 19.212 20.5629 19.557 20.4111 19.8862C20.3402 20.0372 20.265 20.1838 20.1799 20.329C20.1998 20.3218 20.2197 20.3146 20.2381 20.306C20.4324 20.2212 20.6154 20.0918 20.7813 19.961C20.8806 19.8819 21.0012 19.7727 21.0749 19.6663C21.0763 19.6634 21.0792 19.6605 21.0806 19.6577C22.2464 17.9801 23.2378 15.4572 23.374 13.2448C23.5555 10.3338 22.7216 7.24164 20.9473 4.92289C20.7161 4.62101 20.475 4.32775 20.2168 4.04887C18.495 2.17 16.1718 0.848905 13.6755 0.387455C13.2543 0.312703 12.8174 0.26239 12.3863 0.26239Z" fill="white"/>
<path d="M20.7897 16.3542C20.3472 16.8228 19.8522 17.2196 19.3487 17.6192C19.2494 17.6997 19.1473 17.7788 19.0494 17.8622C18.6012 18.2316 18.1601 18.6255 17.8382 19.1186C17.6822 19.3587 17.5573 19.6332 17.4878 19.9136C17.3942 20.2873 17.3957 20.72 17.6098 21.0507C17.8339 21.3942 18.1672 21.5265 18.5275 21.5265C18.8069 21.5265 19.1019 21.446 19.37 21.3223C19.3997 21.295 19.4281 21.2735 19.4565 21.2462C19.7274 20.9903 19.9571 20.7056 20.1486 20.3851C20.1585 20.3678 20.1685 20.3506 20.1784 20.3333C20.099 20.3606 20.0167 20.3779 19.9359 20.3779C19.8678 20.3779 19.804 20.3664 19.7416 20.3419C19.5501 20.2643 19.4522 20.0702 19.4636 19.8676C19.4707 19.731 19.5203 19.6002 19.5785 19.4765C19.8238 18.9605 20.2266 18.5551 20.6195 18.1526C20.7145 18.0548 20.8067 17.9484 20.9003 17.8478C20.9017 17.8306 20.9017 17.8147 20.9032 17.7975C20.9173 17.4381 20.8975 17.0773 20.8493 16.7193C20.8322 16.5986 20.8124 16.475 20.7897 16.3542ZM12.9478 9.96722C12.7053 10.2648 12.4713 10.5696 12.2401 10.8743C10.9068 12.6339 9.29422 14.3431 7.18801 15.1079C6.46325 15.3752 5.68743 15.5219 4.91728 15.5219C4.16415 15.5219 3.41528 15.3824 2.72598 15.0777C2.47493 14.9684 2.23524 14.8362 2.00689 14.6867C1.97427 14.7815 1.9459 14.8764 1.92179 14.9742C1.39276 17.0945 2.56571 19.3917 3.98403 20.894C5.05202 22.0267 6.39517 22.8706 7.8376 23.4413C8.78504 23.7604 9.81758 23.9372 10.8416 23.9372C13.2003 23.9372 15.5107 23.0028 16.617 20.7301C17.1404 19.6548 17.2893 18.4473 17.3517 17.2627C17.4141 16.0696 17.3857 14.8649 17.563 13.6804C17.6354 13.2002 17.7417 12.723 17.8992 12.2644C17.9346 12.1609 17.9743 12.0574 18.0155 11.9553C17.7134 11.7196 17.3957 11.504 17.0694 11.3099C15.7915 10.5437 14.3874 10.1167 12.9478 9.96722Z" fill="white"/>
<path d="M21.072 19.6721C20.9954 19.7785 20.8777 19.8877 20.7784 19.9668C20.6124 20.0976 20.4295 20.227 20.2352 20.3118C20.2167 20.3204 20.1969 20.3276 20.177 20.3348C20.1671 20.3521 20.1572 20.3693 20.1472 20.3866C19.9558 20.7071 19.726 20.9932 19.4551 21.2477C19.4253 21.275 19.3969 21.2965 19.3686 21.3238C19.3686 21.3238 19.3686 21.3238 19.37 21.3238C19.3898 21.3152 19.4083 21.3066 19.4267 21.2965C19.5374 21.2405 19.7941 21.101 20.0494 20.8696C20.0735 20.848 20.0962 20.8265 20.1203 20.8035C20.1472 20.7776 20.1742 20.7517 20.1983 20.7273C20.4919 20.4369 20.7883 20.0789 21.072 19.6721ZM0.00709203 12.0187C0.00425539 12.0805 0.00283694 12.1408 0.00141862 12.2027C3.03017e-07 12.2645 0 12.3248 0 12.3881C0 12.4499 0.00141893 12.5117 0.00283725 12.5735C0.00425556 12.6368 0.00567401 12.6972 0.00851065 12.7604C0.0113473 12.8237 0.0141839 12.8855 0.0184388 12.9487C0.0226938 13.0106 0.0255299 13.0724 0.0312032 13.1356C0.0964459 13.9406 0.24537 14.737 0.472301 15.5133C0.795678 16.613 1.28216 17.6912 1.91331 18.6874C2.12323 19.0152 2.34874 19.3329 2.58702 19.639C3.4919 20.7934 4.61096 21.7695 5.86333 22.517C5.92148 22.5501 5.9768 22.5817 6.03637 22.6119C6.31861 22.7643 6.60086 22.9224 6.8902 23.0633C6.97671 23.1035 7.0604 23.1423 7.14691 23.1797C7.37101 23.276 7.60219 23.3652 7.83905 23.4457C6.39804 22.8749 5.05489 22.0326 3.98548 20.8983C2.56858 19.3947 1.39421 17.0989 1.92324 14.9785C1.94735 14.8808 1.97714 14.7845 2.00834 14.691C2.00834 14.6896 1.98139 14.6724 1.97856 14.6709C1.96863 14.6637 1.9587 14.6565 1.94735 14.6508C1.9275 14.6364 1.90622 14.6235 1.88637 14.6091C1.84665 14.5803 1.80694 14.5516 1.76864 14.5228C1.72893 14.4941 1.69064 14.4639 1.65376 14.4337C1.61547 14.4035 1.57717 14.3719 1.54171 14.3417C1.50484 14.3101 1.46796 14.2785 1.4325 14.2468C1.39563 14.2138 1.36017 14.1807 1.32613 14.1491C1.29209 14.1175 1.25521 14.0815 1.22259 14.0485C1.18855 14.014 1.15451 13.978 1.12331 13.9435C1.09069 13.9076 1.05807 13.8716 1.02686 13.8357C0.994243 13.7983 0.96304 13.7624 0.934673 13.725C0.90347 13.6876 0.873686 13.6488 0.845319 13.6114C0.815535 13.5726 0.787168 13.5338 0.758802 13.495C0.730435 13.4562 0.703487 13.4159 0.676539 13.3771C0.649591 13.3369 0.624061 13.2952 0.598531 13.2564C0.573001 13.2147 0.54889 13.173 0.524779 13.1327C0.500668 13.0925 0.477975 13.0479 0.455282 13.0062C0.432588 12.9631 0.411313 12.92 0.390038 12.8783C0.368763 12.8352 0.348908 12.7906 0.329051 12.7475C0.309195 12.7029 0.290756 12.6598 0.273736 12.6152C0.255298 12.5707 0.238279 12.5247 0.222677 12.4801C0.207076 12.4341 0.191473 12.3881 0.17729 12.3435C0.163107 12.2975 0.148925 12.2515 0.13616 12.2041C0.123395 12.1567 0.112048 12.1107 0.100702 12.0632C0.0893551 12.0158 0.0794259 11.9683 0.070916 11.9209C0.0624061 11.872 0.0538964 11.8246 0.0468048 11.7771C0.0411315 11.7398 0.0368768 11.7024 0.0326218 11.6665C0.0212753 11.7196 0.00851035 11.9568 0.00709203 12.0187ZM17.9786 6.85358C17.9772 6.85358 17.9744 6.85358 17.9729 6.85358C16.8993 6.85501 15.8469 7.34378 14.986 7.96336C14.7987 8.09705 14.6186 8.23936 14.4442 8.39174C13.8953 8.86469 13.4074 9.40377 12.9478 9.96729C14.3874 10.1182 15.7902 10.5437 17.0666 11.3085C17.3929 11.504 17.7091 11.7196 18.0127 11.954C18.2126 11.4666 18.4864 11.0081 18.8707 10.6544C19.2806 10.2778 19.7898 10.0737 20.2947 10.0737C20.7656 10.0737 21.2337 10.2519 21.6095 10.6343C22.5924 11.6305 22.6548 13.2075 22.1073 14.4337C21.7896 15.1467 21.3244 15.7879 20.7883 16.3543C20.8124 16.475 20.8323 16.5987 20.8493 16.7208C20.8975 17.0774 20.9174 17.4382 20.9032 17.799C20.9032 17.8162 20.9018 17.8321 20.9004 17.8493C21.1245 17.6078 21.3471 17.3634 21.5485 17.1032C22.8193 15.4817 23.3966 13.2348 23.0165 11.1949C22.774 9.89829 22.0733 8.68931 21.0351 7.88429C20.1557 7.20146 19.0821 6.85358 17.9786 6.85358Z" fill="white"/>
</g>
</svg>
