<svg width="86" height="40" viewBox="0 0 86 40" fill="none" xmlns="http://www.w3.org/2000/svg">
<path fill-rule="evenodd" clip-rule="evenodd" d="M6.01234 -2.28882e-05C2.81766 -2.28882e-05 0.178584 2.66551 0 5.95232V14.3097H3.17483V5.95232C3.2542 4.42916 4.50429 3.12646 6.01234 3.12646C7.50054 3.12646 8.75063 4.44921 8.83 5.95232V14.3097H12.0048V5.95232C11.8659 2.66551 9.20702 -2.28882e-05 6.01234 -2.28882e-05ZM21.9659 34.4113C18.7712 34.4113 16.1321 31.7458 15.9535 28.459V20.1017H19.1284V28.459C19.2077 29.9821 20.4578 31.2849 21.946 31.2849C23.4342 31.2849 24.7042 29.9621 24.7637 28.459V20.1017H27.9385V28.459C27.7996 31.7458 25.1605 34.3913 21.9659 34.4113ZM10.7746 27.0561C10.7746 24.9517 9.08796 23.2482 7.00447 23.2482C4.92099 23.2482 3.23436 24.9517 3.23436 27.0561C3.23436 29.1604 4.92099 30.864 7.00447 30.864C8.65142 30.864 10.0603 29.7817 10.5762 28.2786V33.1086C9.5245 33.7299 8.31409 34.1107 7.02432 34.1107C3.19468 34.1107 0.059528 30.9441 0.059528 27.0761C0.059528 23.2081 3.19468 20.0415 7.02432 20.0415C10.854 20.0415 13.9891 23.2081 13.9891 27.0761C13.9891 27.2164 13.9891 27.3567 13.9693 27.497H13.9891V39.7825H10.7746V27.0561ZM82.7639 27.0561C82.7639 24.9517 81.0773 23.2482 78.9938 23.2482C76.9302 23.2482 75.2237 24.9517 75.2237 27.0561C75.2237 29.1604 76.9103 30.864 78.9938 30.864C80.6408 30.864 82.0694 29.7817 82.5655 28.2786V33.1086C81.5138 33.7299 80.3034 34.1107 78.9938 34.1107C75.1642 34.1107 72.029 30.9441 72.029 27.0761C72.029 23.2081 75.1642 20.0415 78.9938 20.0415C82.8235 20.0415 85.9586 23.2081 85.9586 27.0761C85.9586 27.2164 85.9586 27.3567 85.9388 27.497H85.9586V34.4113H82.7639V27.0561ZM33.2167 34.4113H29.9426V20.1017H33.2167V34.4113ZM58.3971 34.4113H55.123V20.1017H58.3971V34.4113ZM36.2328 15.5522H32.5619L30.1808 19.1196H32.9984L36.2328 15.5522ZM49.8647 24.9718V34.4113H53.1388V24.9718C53.1388 22.2862 50.9759 20.1017 48.317 20.1017C46.5708 20.1017 45.0231 21.0637 44.1699 22.4666C43.3166 21.0637 41.7689 20.1017 40.0227 20.1017C37.3638 20.1017 35.201 22.2862 35.201 24.9718V34.4113H38.475V24.9718C38.475 23.8494 39.3878 22.9275 40.499 22.9275C41.6101 22.9275 42.5229 23.8494 42.5229 24.9718V34.4113H45.797V24.9718C45.797 23.8494 46.7097 22.9275 47.8209 22.9275C48.952 22.9275 49.8647 23.8294 49.8647 24.9718ZM56.7501 15.7927C57.6629 15.7927 58.3971 16.5343 58.3971 17.4562C58.3971 18.3781 57.6629 19.1196 56.7501 19.1196C55.8572 19.1196 55.1032 18.3781 55.1032 17.4562C55.123 16.5343 55.8572 15.7927 56.7501 15.7927ZM67.9216 34.4113C63.7745 34.4113 60.3814 31.2047 60.3814 27.2565C60.3814 23.4486 63.5165 20.3221 67.4652 20.1017H70.0646V23.2081H67.4652C65.342 23.4085 63.6157 25.1521 63.5959 27.2565C63.5959 29.5012 65.5405 31.3049 67.9017 31.3049H70.0447V34.4113H67.9216ZM23.0572 3.68762C22.3826 3.1465 21.5095 2.906 20.6563 2.906C18.3347 2.906 16.4496 4.80996 16.4496 7.15482C16.4496 9.49968 18.1958 11.5439 20.6959 11.564C23.1961 11.584 24.8431 9.49968 24.8431 7.15482L27.7004 7.51556C27.5218 11.2633 24.4264 14.2896 20.6563 14.2896C16.7671 14.2896 13.5923 11.083 13.5923 7.15482C13.5923 3.22667 16.7671 0.0200195 20.6563 0.0200195C23.6723 0.0200195 26.2717 1.94401 27.2639 4.64962L17.8783 9.96063L16.6282 7.33519L23.0572 3.68762ZM36.3717 -2.28882e-05C40.2807 -2.28882e-05 43.4555 3.20663 43.4555 7.15482C43.4555 11.103 40.2807 14.3097 36.3717 14.3097C32.4627 14.3097 29.2878 11.103 29.2878 7.15482C29.2878 3.20663 32.4627 -2.28882e-05 36.3717 -2.28882e-05ZM36.3717 2.86592C38.7131 2.86592 40.6379 4.78991 40.6379 7.17486C40.6379 9.53976 38.7131 11.4638 36.3717 11.4638C34.0302 11.4638 32.1055 9.53976 32.1055 7.17486C32.1253 4.78991 34.0302 2.86592 36.3717 2.86592Z" fill="white"/>
</svg>
