<svg width="288" height="40" viewBox="0 0 288 40" fill="none" xmlns="http://www.w3.org/2000/svg">
<path d="M77.3733 23.1283C77.3733 23.7701 77.3333 24.4385 77.2534 25.1337H61.7919C61.8984 26.5241 62.3379 27.5936 63.1103 28.3422C63.9094 29.0642 64.8815 29.4251 66.0268 29.4251C67.7315 29.4251 68.9167 28.7032 69.5826 27.2594H76.8539C76.481 28.7299 75.8018 30.0535 74.8163 31.2299C73.8575 32.4064 72.6456 33.3289 71.1807 33.9973C69.7157 34.6658 68.0777 35 66.2665 35C64.0825 35 62.1381 34.5321 60.4335 33.5963C58.7289 32.6604 57.3971 31.3235 56.4383 29.5856C55.4794 27.8476 55 25.8155 55 23.4893C55 21.1631 55.4661 19.131 56.3983 17.393C57.3572 15.6551 58.6889 14.3182 60.3936 13.3824C62.0982 12.4465 64.0558 11.9786 66.2665 11.9786C68.424 11.9786 70.3417 12.4332 72.0197 13.3422C73.6977 14.2513 75.0028 15.5481 75.935 17.2326C76.8938 18.9171 77.3733 20.8824 77.3733 23.1283ZM70.3816 21.3235C70.3816 20.1471 69.9821 19.2112 69.1831 18.516C68.384 17.8209 67.3852 17.4733 66.1866 17.4733C65.0413 17.4733 64.0692 17.8075 63.2701 18.4759C62.4977 19.1444 62.0183 20.0936 61.8318 21.3235H70.3816Z" fill="black"/>
<path d="M89.0078 28.262L93.842 12.2995H101.113L93.2028 34.6791H84.7729L76.8623 12.2995H84.1736L89.0078 28.262Z" fill="black"/>
<path d="M123.006 23.1283C123.006 23.7701 122.966 24.4385 122.886 25.1337H107.425C107.531 26.5241 107.971 27.5936 108.743 28.3422C109.542 29.0642 110.514 29.4251 111.66 29.4251C113.364 29.4251 114.55 28.7032 115.216 27.2594H122.487C122.114 28.7299 121.435 30.0535 120.449 31.2299C119.49 32.4064 118.279 33.3289 116.814 33.9973C115.349 34.6658 113.711 35 111.9 35C109.715 35 107.771 34.5321 106.066 33.5963C104.362 32.6604 103.03 31.3235 102.071 29.5856C101.112 27.8476 100.633 25.8155 100.633 23.4893C100.633 21.1631 101.099 19.131 102.031 17.393C102.99 15.6551 104.322 14.3182 106.027 13.3824C107.731 12.4465 109.689 11.9786 111.9 11.9786C114.057 11.9786 115.975 12.4332 117.653 13.3422C119.331 14.2513 120.636 15.5481 121.568 17.2326C122.527 18.9171 123.006 20.8824 123.006 23.1283ZM116.015 21.3235C116.015 20.1471 115.615 19.2112 114.816 18.516C114.017 17.8209 113.018 17.4733 111.82 17.4733C110.674 17.4733 109.702 17.8075 108.903 18.4759C108.131 19.1444 107.651 20.0936 107.465 21.3235H116.015Z" fill="black"/>
<path d="M131.445 16.0294C132.244 14.7995 133.242 13.8369 134.441 13.1417C135.64 12.4198 136.971 12.0588 138.436 12.0588V19.3182H136.558C134.854 19.3182 133.575 19.6925 132.723 20.4412C131.871 21.1631 131.445 22.4465 131.445 24.2914V34.6791H124.613V12.2995H131.445V16.0294Z" fill="black"/>
<path d="M148.773 35C146.829 35 145.098 34.6658 143.579 33.9973C142.061 33.3289 140.863 32.4198 139.984 31.2701C139.105 30.0936 138.612 28.7834 138.506 27.3396H145.257C145.337 28.115 145.697 28.7433 146.336 29.2246C146.975 29.7059 147.761 29.9465 148.693 29.9465C149.546 29.9465 150.198 29.7861 150.651 29.4652C151.13 29.1176 151.37 28.6765 151.37 28.1417C151.37 27.5 151.037 27.0321 150.371 26.738C149.705 26.4171 148.627 26.0695 147.135 25.6952C145.537 25.3209 144.205 24.9332 143.14 24.5321C142.075 24.1043 141.156 23.4492 140.383 22.5668C139.611 21.6578 139.225 20.4412 139.225 18.9171C139.225 17.6337 139.571 16.4706 140.263 15.4278C140.983 14.3583 142.021 13.516 143.38 12.9011C144.765 12.2861 146.403 11.9786 148.294 11.9786C151.09 11.9786 153.288 12.6738 154.886 14.0642C156.511 15.4545 157.443 17.2995 157.683 19.5989H151.37C151.264 18.8235 150.917 18.2086 150.331 17.754C149.772 17.2995 149.026 17.0722 148.094 17.0722C147.295 17.0722 146.682 17.2326 146.256 17.5535C145.83 17.8476 145.617 18.262 145.617 18.7968C145.617 19.4385 145.95 19.9198 146.616 20.2406C147.308 20.5615 148.374 20.8824 149.812 21.2032C151.463 21.631 152.808 22.0588 153.847 22.4866C154.886 22.8877 155.792 23.5562 156.564 24.492C157.363 25.4011 157.776 26.631 157.802 28.1818C157.802 29.492 157.43 30.6684 156.684 31.7112C155.965 32.7273 154.913 33.5294 153.528 34.1176C152.169 34.7059 150.584 35 148.773 35Z" fill="black"/>
<path d="M170.132 35C167.948 35 165.977 34.5321 164.219 33.5963C162.488 32.6604 161.117 31.3235 160.104 29.5856C159.119 27.8476 158.626 25.8155 158.626 23.4893C158.626 21.1898 159.132 19.1711 160.144 17.4332C161.156 15.6684 162.541 14.3182 164.299 13.3824C166.057 12.4465 168.028 11.9786 170.212 11.9786C172.396 11.9786 174.367 12.4465 176.125 13.3824C177.883 14.3182 179.268 15.6684 180.28 17.4332C181.292 19.1711 181.798 21.1898 181.798 23.4893C181.798 25.7888 181.279 27.8209 180.24 29.5856C179.228 31.3235 177.83 32.6604 176.045 33.5963C174.287 34.5321 172.316 35 170.132 35ZM170.132 29.0642C171.438 29.0642 172.543 28.5829 173.448 27.6203C174.381 26.6578 174.847 25.2808 174.847 23.4893C174.847 21.6979 174.394 20.3209 173.488 19.3583C172.609 18.3957 171.517 17.9144 170.212 17.9144C168.881 17.9144 167.775 18.3957 166.896 19.3583C166.017 20.2941 165.578 21.6711 165.578 23.4893C165.578 25.2808 166.004 26.6578 166.856 27.6203C167.735 28.5829 168.827 29.0642 170.132 29.0642Z" fill="black"/>
<path d="M197.009 12.0588C199.619 12.0588 201.697 12.9144 203.242 14.6257C204.813 16.3102 205.599 18.6364 205.599 21.6043V34.6791H198.807V22.5267C198.807 21.0294 198.421 19.8663 197.648 19.0374C196.876 18.2086 195.837 17.7941 194.532 17.7941C193.227 17.7941 192.188 18.2086 191.416 19.0374C190.643 19.8663 190.257 21.0294 190.257 22.5267V34.6791H183.425V12.2995H190.257V15.2674C190.95 14.2781 191.882 13.5027 193.054 12.9412C194.226 12.3529 195.544 12.0588 197.009 12.0588Z" fill="black"/>
<path d="M211.545 35C210.346 35 209.361 34.6524 208.588 33.9572C207.843 33.2353 207.47 32.3529 207.47 31.3102C207.47 30.2406 207.843 29.3449 208.588 28.623C209.361 27.9011 210.346 27.5401 211.545 27.5401C212.717 27.5401 213.676 27.9011 214.421 28.623C215.194 29.3449 215.58 30.2406 215.58 31.3102C215.58 32.3529 215.194 33.2353 214.421 33.9572C213.676 34.6524 212.717 35 211.545 35Z" fill="#0092FF"/>
<path d="M216.268 23.4492C216.268 21.1497 216.694 19.131 217.547 17.393C218.426 15.6551 219.611 14.3182 221.102 13.3824C222.594 12.4465 224.259 11.9786 226.096 11.9786C227.561 11.9786 228.893 12.2861 230.092 12.9011C231.317 13.516 232.276 14.3449 232.968 15.3877V5H239.8V34.6791H232.968V31.4706C232.329 32.5401 231.41 33.3957 230.212 34.0374C229.04 34.6791 227.668 35 226.096 35C224.259 35 222.594 34.5321 221.102 33.5963C219.611 32.6337 218.426 31.2834 217.547 29.5455C216.694 27.7807 216.268 25.7487 216.268 23.4492ZM232.968 23.4893C232.968 21.7781 232.489 20.4278 231.53 19.4385C230.598 18.4492 229.452 17.9545 228.094 17.9545C226.736 17.9545 225.577 18.4492 224.618 19.4385C223.686 20.4011 223.22 21.738 223.22 23.4492C223.22 25.1604 223.686 26.5241 224.618 27.5401C225.577 28.5294 226.736 29.0241 228.094 29.0241C229.452 29.0241 230.598 28.5294 231.53 27.5401C232.489 26.5508 232.968 25.2005 232.968 23.4893Z" fill="black"/>
<path d="M263.76 23.1283C263.76 23.7701 263.72 24.4385 263.64 25.1337H248.179C248.285 26.5241 248.725 27.5936 249.497 28.3422C250.296 29.0642 251.268 29.4251 252.413 29.4251C254.118 29.4251 255.303 28.7032 255.969 27.2594H263.241C262.868 28.7299 262.188 30.0535 261.203 31.2299C260.244 32.4064 259.032 33.3289 257.567 33.9973C256.102 34.6658 254.464 35 252.653 35C250.469 35 248.525 34.5321 246.82 33.5963C245.116 32.6604 243.784 31.3235 242.825 29.5856C241.866 27.8476 241.387 25.8155 241.387 23.4893C241.387 21.1631 241.853 19.131 242.785 17.393C243.744 15.6551 245.076 14.3182 246.78 13.3824C248.485 12.4465 250.443 11.9786 252.653 11.9786C254.811 11.9786 256.728 12.4332 258.406 13.3422C260.084 14.2513 261.389 15.5481 262.322 17.2326C263.281 18.9171 263.76 20.8824 263.76 23.1283ZM256.768 21.3235C256.768 20.1471 256.369 19.2112 255.57 18.516C254.771 17.8209 253.772 17.4733 252.573 17.4733C251.428 17.4733 250.456 17.8075 249.657 18.4759C248.884 19.1444 248.405 20.0936 248.218 21.3235H256.768Z" fill="black"/>
<path d="M275.394 28.262L280.229 12.2995H287.5L279.589 34.6791H271.16L263.249 12.2995H270.56L275.394 28.262Z" fill="black"/>
<path d="M39.4898 26.8404C37.9877 31.072 35.1368 34.66 31.3986 37.0236C27.6604 39.3872 23.2536 40.3881 18.8916 39.8641C14.5297 39.3402 10.4678 37.3222 7.3635 34.1368C4.25921 30.9513 2.2942 26.7848 1.78654 22.3118C1.27888 17.8388 2.2583 13.321 4.56624 9.48973C6.87418 5.65847 10.3756 2.73797 14.5036 1.20098C18.6317 -0.336009 23.1448 -0.399528 27.3125 1.02071C31.4802 2.44094 35.0584 5.2618 37.468 9.02667L30.9452 13.416C29.4994 11.1571 27.3525 9.46456 24.8519 8.61242C22.3513 7.76028 19.6434 7.79839 17.1666 8.72058C14.6897 9.64277 12.5889 11.3951 11.2041 13.6938C9.81935 15.9926 9.2317 18.7033 9.53629 21.3871C9.84089 24.0709 11.0199 26.5708 12.8825 28.4821C14.745 30.3933 17.1822 31.6041 19.7994 31.9185C22.4165 32.2328 25.0606 31.6323 27.3035 30.2142C29.5464 28.796 31.257 26.6432 32.1582 24.1042L39.4898 26.8404Z" fill="#0092FF"/>
<path d="M0 30.3184L20.2059 9.59989L25.7227 15.2567L5.51689 35.9752L0 30.3184Z" fill="#0092FF"/>
<path d="M20.3892 9.33887L32.3839 21.6379L26.867 27.2948L14.8723 14.9957L20.3892 9.33887Z" fill="#0092FF"/>
<path d="M21.5503 21.6095L37.8733 4.87235L43.3902 10.5292L27.0672 27.2664L21.5503 21.6095Z" fill="#0092FF"/>
</svg>
